<svg width="179" height="161" viewBox="0 0 179 161" fill="none" xmlns="http://www.w3.org/2000/svg">
<g filter="url(#filter0_d_462_121)">
<g filter="url(#filter1_b_462_121)">
<circle cx="89.1558" cy="79.8192" r="51.3324" transform="rotate(13.6107 89.1558 79.8192)" fill="#FBFF12" fill-opacity="0.27"/>
<circle cx="89.1558" cy="79.8192" r="50.3324" transform="rotate(13.6107 89.1558 79.8192)" stroke="#FBFF12" stroke-width="2"/>
</g>
<g clip-path="url(#clip0_462_121)">
<path d="M84.2245 58.812C83.6445 58.7216 83.62 58.7109 83.893 58.6688C84.4161 58.5879 85.6513 58.6981 86.5026 58.9015C88.4898 59.3762 90.2981 60.5922 92.2284 62.7517L92.7412 63.3255L93.4747 63.207C96.5652 62.7079 99.7091 63.1045 102.339 64.3252C103.062 64.6611 104.203 65.3296 104.345 65.5014C104.391 65.5561 104.474 65.9086 104.53 66.2846C104.726 67.5856 104.628 68.583 104.232 69.3278C104.017 69.7331 104.005 69.8615 104.149 70.2084C104.265 70.4853 104.587 70.6901 104.907 70.6897C105.56 70.6888 106.264 69.6273 106.589 68.1503L106.719 67.5636L106.975 67.8554C108.382 69.457 109.487 71.641 109.677 73.1957L109.726 73.601L109.49 73.2325C109.083 72.5985 108.674 72.1667 108.15 71.8186C107.206 71.1911 106.209 70.9776 103.566 70.8376C101.179 70.7112 99.8279 70.5064 98.4884 70.0674C96.2093 69.3207 95.0604 68.3262 92.3532 64.7569C91.1507 63.1717 90.4075 62.2945 89.6682 61.5881C87.9882 59.9831 86.3375 59.1413 84.2245 58.812Z" fill="#FFFB00"/>
<path d="M104.883 62.3518C104.943 61.2896 105.087 60.5888 105.375 59.9489C105.489 59.6956 105.596 59.4883 105.613 59.4883C105.629 59.4883 105.579 59.6753 105.502 59.9037C105.293 60.5248 105.258 61.3742 105.403 62.3625C105.586 63.6164 105.69 63.7973 107.009 65.1519C107.628 65.7872 108.347 66.5885 108.608 66.9325L109.082 67.5581L108.608 67.111C108.028 66.5644 106.694 65.4982 106.399 65.3458C106.202 65.2436 106.172 65.2453 106.051 65.3672C105.938 65.4795 105.915 65.6483 105.899 66.4461C105.875 67.6896 105.706 68.4877 105.299 69.2858C105.079 69.7174 105.044 69.6253 105.243 69.1382C105.392 68.7744 105.407 68.6145 105.406 67.4106C105.404 64.9921 105.118 64.4106 103.442 63.4145C103.018 63.1622 102.318 62.7982 101.888 62.6057C101.458 62.4133 101.116 62.2456 101.128 62.2331C101.176 62.1856 102.81 62.6649 103.468 62.9191C104.446 63.2973 104.608 63.3463 104.726 63.3007C104.806 63.2702 104.845 63.037 104.883 62.3518Z" fill="#FFFB00"/>
<path d="M85.3529 66.4888C84.1753 64.8597 83.4467 62.3617 83.6044 60.4944L83.6532 59.9165L83.9212 59.9657C84.4247 60.058 85.2925 60.3826 85.699 60.6307C86.8143 61.3113 87.2971 62.2075 87.7884 64.5087C87.9322 65.1826 88.121 65.9454 88.2079 66.2037C88.3478 66.6193 88.8762 67.5902 89.3058 68.2208C89.6153 68.6748 89.4097 68.89 88.7256 68.828C87.681 68.7332 86.2658 67.7518 85.3529 66.4888Z" fill="#FFFB00"/>
<path d="M103.456 78.614C97.9529 76.3873 96.0146 74.4545 96.0146 71.1934C96.0146 70.7135 96.0311 70.3208 96.0511 70.3208C96.0711 70.3208 96.2841 70.4792 96.5243 70.6728C97.6403 71.5722 98.89 71.9565 102.35 72.4636C104.385 72.7621 105.531 73.0031 106.588 73.3553C109.947 74.4748 112.025 76.7466 112.521 79.8409C112.665 80.74 112.58 82.426 112.347 83.3147C112.162 84.0166 111.6 85.2817 111.451 85.3302C111.409 85.3437 111.369 85.1844 111.358 84.9676C111.302 83.8058 110.717 82.6746 109.736 81.8272C108.62 80.8638 107.121 80.0968 103.456 78.614Z" fill="#FFFB00"/>
<path d="M99.5921 79.5393C99.5231 79.127 99.4035 78.6004 99.3263 78.3692L99.1859 77.9487L99.4467 78.243C99.8076 78.65 100.093 79.171 100.335 79.8648C100.519 80.3944 100.54 80.5519 100.538 81.4125C100.537 82.2573 100.514 82.4344 100.344 82.9111C100.075 83.6627 99.7416 84.1957 99.1821 84.7678C98.1768 85.7959 96.8843 86.3651 95.0192 86.6013C94.695 86.6423 93.7501 86.7114 92.9193 86.7548C90.8257 86.8642 89.4478 87.0903 88.2097 87.5272C88.0317 87.59 87.8727 87.6281 87.8566 87.612C87.8065 87.5619 88.6495 87.0568 89.3458 86.7198C90.3276 86.2446 91.3048 85.9853 93.4946 85.6188C94.5763 85.4378 95.6934 85.2182 95.977 85.1308C98.6558 84.3055 100.033 82.1756 99.5921 79.5393Z" fill="#FFFB00"/>
<path d="M102.115 84.0416C101.384 82.462 101.216 80.937 101.616 79.5146C101.659 79.3627 101.728 79.2383 101.769 79.2383C101.811 79.2383 101.983 79.3321 102.153 79.4466C102.49 79.6746 103.166 80.0584 104.966 81.0448C107.213 82.2757 108.494 83.2288 109.365 84.3177C110.127 85.2714 110.6 86.3576 110.827 87.682C110.955 88.4323 110.88 90.2375 110.689 90.9929C110.085 93.375 108.681 95.246 106.678 96.3378C106.385 96.4977 106.121 96.6291 106.093 96.6297C106.065 96.6302 106.171 96.3571 106.33 96.0227C107.004 94.6077 107.081 93.2314 106.572 91.6994C106.26 90.7614 105.624 89.6168 104.34 87.6823C102.848 85.4333 102.482 84.8347 102.115 84.0416Z" fill="#FFFB00"/>
<path d="M81.443 92.5646C83.4853 90.8318 86.0263 89.6008 88.3411 89.223C89.3386 89.0601 91.0004 89.1247 91.9241 89.3623C93.4049 89.7431 94.7294 90.5959 95.4182 91.6121C96.0915 92.6052 96.3803 93.4706 96.681 95.3962C96.7996 96.1558 96.9287 96.9185 96.9677 97.0912C97.1935 98.0891 97.633 98.8868 98.1775 99.2874C99.0425 99.9235 100.532 99.9632 101.997 99.3889C102.246 99.2914 102.461 99.2239 102.477 99.2392C102.53 99.2922 101.792 99.7885 101.272 100.05C100.571 100.401 100.014 100.537 99.2744 100.537C97.9325 100.537 96.8185 99.8512 95.8888 98.4525C95.7059 98.1772 95.2947 97.3527 94.9751 96.6204C93.9937 94.3708 93.5089 93.6854 92.3693 92.9355C91.3776 92.2829 90.0986 92.166 89.1364 92.6401C87.8725 93.2628 87.5198 94.8859 88.4251 95.9145C88.7848 96.3233 89.4558 96.6759 90.0044 96.7444C91.0308 96.8727 91.9128 96.0881 91.9128 95.0468C91.9128 94.3707 91.6542 93.9849 91.0032 93.6896C90.114 93.2865 89.1582 93.7577 89.1628 94.5972C89.1648 94.955 89.3199 95.1798 89.6769 95.3421C89.9059 95.4463 89.9113 95.4546 89.7245 95.4156C88.9086 95.2456 88.7175 94.2572 89.3735 93.601C90.161 92.8133 91.7896 93.1609 92.3489 94.2362C92.5838 94.6877 92.6111 95.5872 92.4063 96.1303C91.9478 97.346 90.6111 97.9852 89.255 97.6373C88.3319 97.4004 87.956 97.144 86.8429 95.9919C84.9087 93.9897 84.1578 93.6017 81.3693 93.1643L80.835 93.0805L81.443 92.5646Z" fill="#FFFB00"/>
<path fill-rule="evenodd" clip-rule="evenodd" d="M66.8585 47.7151C73.3178 55.5931 83.2762 67.8587 83.7706 68.5455C84.1788 69.1125 84.0252 69.6222 83.3259 70.0217C82.937 70.2439 82.1374 70.469 81.7371 70.469C81.2844 70.469 80.7743 70.2499 80.4029 69.8958C80.1403 69.6455 79.0807 68.0556 76.6346 64.2415C74.763 61.3232 73.1966 58.9023 73.1539 58.8618C73.0551 58.768 73.0568 58.7712 76.4438 64.8609C78.5705 68.6849 79.2884 70.0368 79.2884 70.2175C79.2884 70.5853 79.1886 70.7786 78.7372 71.2846C77.9846 72.1283 77.6482 73.0762 77.4054 75.0381C77.133 77.2373 76.3675 78.7909 74.246 81.4497C73.0041 83.0061 72.8009 83.2914 72.4875 83.9187C72.0928 84.7086 71.9842 85.1511 71.9403 86.1486C71.8938 87.2033 71.9843 87.8846 72.305 88.893C72.5857 89.7759 72.8787 90.3588 73.6278 91.5248C74.2743 92.5309 74.6466 93.2787 74.6466 93.5711C74.6466 93.8039 74.6908 93.8042 75.6926 93.5769C78.0898 93.0328 80.0365 92.076 81.1314 90.9035C81.8089 90.1778 81.968 89.777 81.9731 88.7825C81.9765 88.132 81.9538 87.9958 81.7788 87.6215C81.494 87.0124 80.9754 86.506 79.8324 85.7209C78.3349 84.6921 77.6953 83.8639 77.5185 82.725C77.3736 81.7904 77.5418 81.131 78.3702 79.3862C79.2278 77.5802 79.4402 76.8105 79.584 74.9901C79.6768 73.8139 79.8054 73.3501 80.1417 72.9778C80.4924 72.5895 80.8081 72.4581 81.6761 72.3389C83.0911 72.1446 83.9921 71.7768 84.7328 71.0909C85.3753 70.496 85.6441 69.9227 85.6854 69.0597L85.7167 68.4056L85.3577 67.985C84.0574 66.4614 65.9877 46.5176 65.9077 46.5176C65.8906 46.5176 66.3185 47.0565 66.8585 47.7151ZM75.3764 87.342C75.6704 86.8189 75.5143 86.1462 75.0225 85.8177C74.5578 85.5072 73.836 85.6534 73.836 86.058C73.836 86.1814 73.904 86.2713 74.0571 86.3505C74.3149 86.4838 74.3336 86.6337 74.1308 86.9401C73.9254 87.2504 73.942 87.5232 74.1776 87.7085C74.5573 88.0073 75.0949 87.843 75.3764 87.342Z" fill="#FFFB00"/>
<path fill-rule="evenodd" clip-rule="evenodd" d="M86.6092 72.682C85.9449 72.887 85.2992 73.5945 85.0992 74.3364C84.9773 74.789 85.0465 75.5829 85.2292 75.828C85.5243 76.224 85.8096 76.3283 86.5824 76.3229C88.0951 76.3123 89.4102 75.6603 89.5631 74.8451C89.6885 74.1771 89.1109 73.2511 88.3153 72.8446C87.9048 72.6349 87.0316 72.5517 86.6092 72.682ZM88.3777 74.0716C88.611 73.7386 88.5089 73.3785 88.1122 73.1351C87.3566 72.6714 86.2139 73.0551 86.2139 73.7724C86.2139 74.1295 86.8097 74.519 87.356 74.519C87.7195 74.519 88.217 74.3012 88.3777 74.0716Z" fill="#FFFB00"/>
</g>
<path d="M136.504 99.72L146.445 114.279L154.083 98.3902L136.504 99.72Z" fill="#FFFB00"/>
<path d="M42.8111 60.262L25.2326 61.5919L32.8702 45.7035L42.8111 60.262Z" fill="#FFFB00"/>
</g>
<defs>
<filter id="filter0_d_462_121" x="-22.149" y="-24.2555" width="223.464" height="209.087" filterUnits="userSpaceOnUse" color-interpolation-filters="sRGB">
<feFlood flood-opacity="0" result="BackgroundImageFix"/>
<feColorMatrix in="SourceAlpha" type="matrix" values="0 0 0 0 0 0 0 0 0 0 0 0 0 0 0 0 0 0 127 0" result="hardAlpha"/>
<feOffset/>
<feGaussianBlur stdDeviation="12.2"/>
<feComposite in2="hardAlpha" operator="out"/>
<feColorMatrix type="matrix" values="0 0 0 0 1 0 0 0 0 1 0 0 0 0 1 0 0 0 0.65 0"/>
<feBlend mode="normal" in2="BackgroundImageFix" result="effect1_dropShadow_462_121"/>
<feBlend mode="normal" in="SourceGraphic" in2="effect1_dropShadow_462_121" result="shape"/>
</filter>
<filter id="filter1_b_462_121" x="22.9115" y="13.5751" width="132.488" height="132.488" filterUnits="userSpaceOnUse" color-interpolation-filters="sRGB">
<feFlood flood-opacity="0" result="BackgroundImageFix"/>
<feGaussianBlur in="BackgroundImageFix" stdDeviation="7.45"/>
<feComposite in2="SourceAlpha" operator="in" result="effect1_backgroundBlur_462_121"/>
<feBlend mode="normal" in="SourceGraphic" in2="effect1_backgroundBlur_462_121" result="shape"/>
</filter>
<clipPath id="clip0_462_121">
<rect width="53.9875" height="53.9875" fill="white" transform="translate(61.9648 47.022)"/>
</clipPath>
</defs>
</svg>
