<svg width="159" height="161" viewBox="0 0 159 161" fill="none" xmlns="http://www.w3.org/2000/svg">
<g filter="url(#filter0_d_462_114)">
<g filter="url(#filter1_b_462_114)">
<ellipse cx="79.6488" cy="80.5623" rx="43.9124" ry="43.9124" transform="rotate(36.3389 79.6488 80.5623)" fill="#FBFF12" fill-opacity="0.27"/>
<path d="M114.216 105.99C100.172 125.081 73.3115 129.173 54.2206 115.129C35.1297 101.086 31.0381 74.225 45.0817 55.1341C59.1253 36.0432 85.986 31.9516 105.077 45.9952C124.168 60.0388 128.259 86.8996 114.216 105.99Z" stroke="#FBFF12" stroke-width="2"/>
</g>
<path fill-rule="evenodd" clip-rule="evenodd" d="M90.1634 68.7634C88.1001 67.7089 86.3869 66.8638 86.3564 66.8856C86.2777 66.9417 87.0074 72.4198 87.1122 72.5592C87.1597 72.6226 87.7105 72.9392 88.3359 73.263L89.4731 73.8517L89.6493 75.2388L89.8253 76.626L91.7488 77.7559C94.6472 79.4583 94.9548 79.6304 94.9686 79.5602C94.987 79.4669 94.8522 78.2244 94.4602 74.8719C94.2708 73.2517 94.0931 71.6748 94.0655 71.3675C94.0379 71.06 93.9927 70.7799 93.9651 70.7446C93.9376 70.7094 92.2268 69.8177 90.1635 68.7632L90.1634 68.7634ZM81.1367 64.1225L78.9965 63.0195L74.9554 65.8416C72.7327 67.3937 70.9302 68.6865 70.9499 68.7147C70.9696 68.7429 71.9496 69.3363 73.1279 70.0336L75.2703 71.3016L79.5299 68.327L79.659 69.5877C79.7587 70.5588 79.8598 71.5299 79.9617 72.5007L80.1352 74.1531L80.7507 74.5126C81.1369 74.7378 81.5241 74.9614 81.9124 75.1833C82.213 75.3543 82.941 75.781 83.5303 76.1315C84.1197 76.4819 84.6839 76.7933 84.7839 76.8234C84.9168 76.8634 84.7707 75.3455 84.2436 71.2087C83.8463 68.0904 83.4664 65.4686 83.3991 65.3823C83.3319 65.2961 82.314 64.7291 81.1368 64.1224L81.1367 64.1225ZM92.8786 81.4875C91.5001 80.681 90.3498 80.0357 90.3221 80.0533C90.2946 80.071 90.3538 80.9938 90.4538 82.1042C90.5536 83.2145 90.6111 84.14 90.5813 84.1608C90.5515 84.1816 89.7141 83.7221 88.7202 83.14C87.7263 82.5576 85.2121 81.0872 83.133 79.8723L76.1666 75.8014C74.4141 74.7774 72.8345 73.8544 72.6562 73.7503C69.0747 71.6601 68.0866 71.0883 67.9373 71.0192C67.7872 70.9498 67.3713 71.2008 65.3623 72.5727L62.9662 74.2089L63.2444 76.3376L63.5226 78.4662L66.0321 79.9347C67.4124 80.7425 68.5703 81.3832 68.6055 81.3586C68.6408 81.334 68.6333 81.0119 68.5895 80.6425C68.5458 80.273 68.4766 79.4952 68.4362 78.9139C68.3958 78.3325 68.336 77.7666 68.3032 77.656C68.2704 77.5455 68.2723 77.4371 68.3074 77.4147C68.3423 77.3925 69.4704 78.0231 70.8143 78.8158C73.4244 80.3555 75.4275 81.5299 79.735 84.0462C81.6611 85.1714 83.5866 86.2975 85.5121 87.4236C87.2042 88.4136 89.1749 89.5623 89.8916 89.9761L91.1947 90.7285L93.6178 89.0733L96.0409 87.4182L95.7648 85.2551C95.6128 84.0652 95.4652 83.0608 95.4366 83.0227C95.4081 82.9846 94.2569 82.2937 92.8784 81.4874L92.8786 81.4875ZM87.6891 92.5455C87.4098 92.3934 86.87 92.0847 86.4897 91.8593C86.1093 91.6339 85.3836 91.2092 84.8767 90.9153L83.9553 90.3812L81.8307 91.8381C80.6622 92.6393 79.6877 93.2575 79.6649 93.212C79.6138 93.1083 79.3545 91.0823 79.1289 89.0214C78.9661 87.5339 78.9422 87.4499 78.6377 87.2863C78.4616 87.1918 77.4511 86.5972 76.3921 85.9652C75.3331 85.3332 74.4185 84.8051 74.3595 84.7913C74.3007 84.7777 74.5698 87.35 74.9574 90.5081L75.6621 96.2497L77.8575 97.3795C79.0648 98.0009 80.1236 98.5068 80.2101 98.5037C80.4049 98.4969 88.3199 92.9585 88.2485 92.8791C88.2202 92.8477 87.9685 92.6975 87.6892 92.5453L87.6891 92.5455ZM71.4706 89.125C71.1175 88.9096 70.7642 88.6945 70.4109 88.4797C69.3426 87.8317 69.457 88.0248 69.2451 86.5142C69.1038 85.5082 68.9968 85.1067 68.8432 85.0073C68.7281 84.9327 67.6898 84.3234 66.5359 83.6534C65.3819 82.9833 64.4139 82.4006 64.3845 82.3586C64.0938 81.9423 64.155 82.9291 64.6446 86.5596L65.2188 90.8172L66.803 91.6711C67.6743 92.1407 69.4266 93.0915 70.6967 93.7843C71.967 94.4768 73.0109 95.0207 73.0166 94.993C73.0221 94.9651 72.8672 93.7497 72.6723 92.292L72.3177 89.6416L71.4704 89.1251L71.4706 89.125Z" fill="#FFFB00"/>
<path d="M70.5261 37.5048L63.0465 28.9184L74.2223 26.734L70.5261 37.5048Z" fill="#FFFB00"/>
<path d="M89.2957 122.997L85.5994 133.768L96.7753 131.584L89.2957 122.997Z" fill="#FFFB00"/>
</g>
<defs>
<filter id="filter0_d_462_114" x="-24.0836" y="-23.9439" width="207.345" height="208.84" filterUnits="userSpaceOnUse" color-interpolation-filters="sRGB">
<feFlood flood-opacity="0" result="BackgroundImageFix"/>
<feColorMatrix in="SourceAlpha" type="matrix" values="0 0 0 0 0 0 0 0 0 0 0 0 0 0 0 0 0 0 127 0" result="hardAlpha"/>
<feOffset/>
<feGaussianBlur stdDeviation="12.2"/>
<feComposite in2="hardAlpha" operator="out"/>
<feColorMatrix type="matrix" values="0 0 0 0 1 0 0 0 0 1 0 0 0 0 1 0 0 0 0.65 0"/>
<feBlend mode="normal" in2="BackgroundImageFix" result="effect1_dropShadow_462_114"/>
<feBlend mode="normal" in="SourceGraphic" in2="effect1_dropShadow_462_114" result="shape"/>
</filter>
<filter id="filter1_b_462_114" x="20.8334" y="21.747" width="117.631" height="117.631" filterUnits="userSpaceOnUse" color-interpolation-filters="sRGB">
<feFlood flood-opacity="0" result="BackgroundImageFix"/>
<feGaussianBlur in="BackgroundImageFix" stdDeviation="7.45"/>
<feComposite in2="SourceAlpha" operator="in" result="effect1_backgroundBlur_462_114"/>
<feBlend mode="normal" in="SourceGraphic" in2="effect1_backgroundBlur_462_114" result="shape"/>
</filter>
</defs>
</svg>
