<svg width="106" height="28" viewBox="0 0 106 28" fill="none" xmlns="http://www.w3.org/2000/svg">
<path d="M10.1042 8.35742L17.3629 20.506H2.84557L10.1042 8.35742Z" fill="#FEF147"/>
<path d="M22.1584 14.5718L16.2047 4.75405L28.1122 4.75405L22.1584 14.5718Z" fill="#FEF147"/>
<path d="M93.9033 13.3561C93.9033 12.2326 94.1565 11.2435 94.6629 10.389C95.1851 9.53443 95.8893 8.86978 96.7755 8.39504C97.6617 7.90447 98.6666 7.65918 99.7902 7.65918C100.914 7.65918 101.911 7.90447 102.781 8.39504C103.667 8.86978 104.371 9.53443 104.894 10.389C105.416 11.2435 105.677 12.2326 105.677 13.3561C105.677 14.4639 105.416 15.4529 104.894 16.3233C104.371 17.1779 103.667 17.8504 102.781 18.341C101.911 18.8157 100.914 19.0531 99.7902 19.0531C98.6666 19.0531 97.6617 18.8157 96.7755 18.341C95.8893 17.8504 95.1851 17.1779 94.6629 16.3233C94.1565 15.4529 93.9033 14.4639 93.9033 13.3561ZM96.5382 13.3561C96.5382 14.0366 96.6806 14.638 96.9654 15.1602C97.2503 15.6666 97.638 16.0701 98.1286 16.3708C98.6191 16.6556 99.173 16.7981 99.7902 16.7981C100.392 16.7981 100.937 16.6556 101.428 16.3708C101.934 16.0701 102.33 15.6666 102.615 15.1602C102.9 14.638 103.042 14.0366 103.042 13.3561C103.042 12.6757 102.9 12.0743 102.615 11.5521C102.33 11.0299 101.934 10.6263 101.428 10.3415C100.937 10.0567 100.392 9.91423 99.7902 9.91423C99.173 9.91423 98.6191 10.0567 98.1286 10.3415C97.638 10.6263 97.2503 11.0299 96.9654 11.5521C96.6806 12.0743 96.5382 12.6757 96.5382 13.3561Z" fill="#FEF147"/>
<path d="M82.1523 7.89746L84.9534 7.89746L87.8018 14.9475L90.6503 7.89746H93.4751L87.8018 19.8136L82.1523 7.89746Z" fill="#FEF147"/>
<path d="M69.9561 13.3561C69.9561 12.2326 70.2093 11.2435 70.7156 10.389C71.2379 9.53443 71.9421 8.86978 72.8283 8.39504C73.7145 7.90447 74.7193 7.65918 75.8429 7.65918C76.9665 7.65918 77.9634 7.90447 78.8338 8.39504C79.72 8.86978 80.4242 9.53443 80.9464 10.389C81.4687 11.2435 81.7298 12.2326 81.7298 13.3561C81.7298 14.4639 81.4687 15.4529 80.9464 16.3233C80.4242 17.1779 79.72 17.8504 78.8338 18.341C77.9634 18.8157 76.9665 19.0531 75.8429 19.0531C74.7193 19.0531 73.7145 18.8157 72.8283 18.341C71.9421 17.8504 71.2379 17.1779 70.7156 16.3233C70.2093 15.4529 69.9561 14.4639 69.9561 13.3561ZM72.5909 13.3561C72.5909 14.0366 72.7333 14.638 73.0182 15.1602C73.303 15.6666 73.6907 16.0701 74.1813 16.3708C74.6719 16.6556 75.2257 16.7981 75.8429 16.7981C76.4443 16.7981 76.9902 16.6556 77.4808 16.3708C77.9872 16.0701 78.3828 15.6666 78.6677 15.1602C78.9525 14.638 79.0949 14.0366 79.0949 13.3561C79.0949 12.6757 78.9525 12.0743 78.6677 11.5521C78.3828 11.0299 77.9872 10.6263 77.4808 10.3415C76.9902 10.0567 76.4443 9.91423 75.8429 9.91423C75.2257 9.91423 74.6719 10.0567 74.1813 10.3415C73.6907 10.6263 73.303 11.0299 73.0182 11.5521C72.7333 12.0743 72.5909 12.6757 72.5909 13.3561Z" fill="#FEF147"/>
<path d="M64.8778 12.1693C64.8778 11.3622 64.7117 10.7529 64.3793 10.3415C64.047 9.93005 63.5327 9.72433 62.8364 9.72433C62.3617 9.72433 61.9423 9.82719 61.5783 10.0329C61.2144 10.2228 60.9295 10.5077 60.7238 10.8875C60.5181 11.2514 60.4152 11.6787 60.4152 12.1693V18.8157H57.8516V7.89655H60.4152V9.5819C60.7633 8.93308 61.2064 8.45042 61.7445 8.13393C62.2984 7.81743 62.9551 7.65918 63.7147 7.65918C64.949 7.65918 65.8906 8.03898 66.5394 8.79857C67.1883 9.54234 67.5127 10.571 67.5127 11.8844V18.8157H64.8778V12.1693Z" fill="#FEF147"/>
<path d="M48.2816 15.2314C48.6297 15.6112 48.9779 15.9435 49.326 16.2284C49.69 16.4974 50.054 16.7031 50.4179 16.8455C50.7819 16.9721 51.1459 17.0354 51.5099 17.0354C51.9688 17.0354 52.3248 16.9326 52.578 16.7268C52.8471 16.5211 52.9816 16.2363 52.9816 15.8723C52.9816 15.5558 52.8787 15.2868 52.673 15.0652C52.4673 14.8279 52.1824 14.63 51.8184 14.4718C51.4545 14.2977 51.0272 14.1237 50.5366 13.9496C50.0461 13.7597 49.5555 13.5381 49.0649 13.2849C48.5902 13.0159 48.1945 12.6678 47.8781 12.2405C47.5774 11.8132 47.427 11.2752 47.427 10.6263C47.427 9.9617 47.5932 9.40783 47.9255 8.96473C48.2737 8.52164 48.7326 8.19723 49.3023 7.9915C49.8878 7.76995 50.5129 7.65918 51.1775 7.65918C51.7789 7.65918 52.3407 7.74622 52.8629 7.92029C53.4009 8.09436 53.8836 8.32383 54.3109 8.60867C54.7381 8.89352 55.1021 9.21793 55.4028 9.5819L53.9785 11.1011C53.6146 10.6738 53.1794 10.3257 52.673 10.0567C52.1666 9.78763 51.6444 9.65312 51.1063 9.65312C50.7424 9.65312 50.4417 9.73224 50.2043 9.89049C49.9669 10.0487 49.8482 10.2782 49.8482 10.5789C49.8482 10.8321 49.9511 11.0615 50.1568 11.2673C50.3784 11.4572 50.6632 11.6312 51.0114 11.7895C51.3754 11.9477 51.7789 12.1139 52.222 12.288C52.8233 12.5253 53.3772 12.7864 53.8836 13.0713C54.39 13.3561 54.7935 13.7043 55.0942 14.1157C55.4107 14.5272 55.5689 15.0652 55.5689 15.7299C55.5689 16.7585 55.2129 17.5893 54.5008 18.2223C53.8045 18.8395 52.855 19.1481 51.6523 19.1481C50.9085 19.1481 50.2201 19.0373 49.5871 18.8157C48.97 18.5784 48.424 18.2777 47.9493 17.9137C47.4903 17.5339 47.1026 17.1383 46.7861 16.7268L48.2816 15.2314Z" fill="#FEF147"/>
<path d="M33.5811 13.3561C33.5811 12.2326 33.8343 11.2435 34.3406 10.389C34.8629 9.53443 35.5671 8.86978 36.4533 8.39504C37.3395 7.90447 38.3443 7.65918 39.4679 7.65918C40.5915 7.65918 41.5885 7.90447 42.4588 8.39504C43.345 8.86978 44.0492 9.53443 44.5714 10.389C45.0937 11.2435 45.3548 12.2326 45.3548 13.3561C45.3548 14.4639 45.0937 15.4529 44.5714 16.3233C44.0492 17.1779 43.345 17.8504 42.4588 18.341C41.5885 18.8157 40.5915 19.0531 39.4679 19.0531C38.3443 19.0531 37.3395 18.8157 36.4533 18.341C35.5671 17.8504 34.8629 17.1779 34.3406 16.3233C33.8343 15.4529 33.5811 14.4639 33.5811 13.3561ZM36.2159 13.3561C36.2159 14.0366 36.3583 14.638 36.6432 15.1602C36.928 15.6666 37.3157 16.0701 37.8063 16.3708C38.2969 16.6556 38.8507 16.7981 39.4679 16.7981C40.0693 16.7981 40.6152 16.6556 41.1058 16.3708C41.6122 16.0701 42.0078 15.6666 42.2927 15.1602C42.5775 14.638 42.7199 14.0366 42.7199 13.3561C42.7199 12.6757 42.5775 12.0743 42.2927 11.5521C42.0078 11.0299 41.6122 10.6263 41.1058 10.3415C40.6152 10.0567 40.0693 9.91423 39.4679 9.91423C38.8507 9.91423 38.2969 10.0567 37.8063 10.3415C37.3157 10.6263 36.928 11.0299 36.6432 11.5521C36.3583 12.0743 36.2159 12.6757 36.2159 13.3561Z" fill="#FEF147"/>
</svg>
