<svg width="178" height="178" viewBox="0 0 178 178" fill="none" xmlns="http://www.w3.org/2000/svg">
<g filter="url(#filter0_d_462_106)">
<g filter="url(#filter1_b_462_106)">
<circle cx="88.8613" cy="89.0005" r="64.2877" transform="rotate(-24.2157 88.8613 89.0005)" fill="#FBFF12" fill-opacity="0.27"/>
<circle cx="88.8613" cy="89.0005" r="63.2877" transform="rotate(-24.2157 88.8613 89.0005)" stroke="#FBFF12" stroke-width="2"/>
</g>
<g clip-path="url(#clip0_462_106)">
<path fill-rule="evenodd" clip-rule="evenodd" d="M92.2406 79.798C93.7729 78.5829 95.686 76.8662 97.504 74.6833C98.1653 75.5417 98.392 76.3646 98.2966 77.0875C98.2287 77.5973 97.9991 78.0768 97.6527 78.4926C97.2771 78.9422 96.7688 79.3197 96.1763 79.5903C95.0523 80.1053 93.6414 80.2405 92.2405 79.7974M94.3836 88.485L96.9263 89.3163C92.846 92.8873 92.604 97.9703 92.0992 102.978C89.6151 98.6009 87.3402 94.0483 82.1652 92.4306L84.1554 90.6429C84.5693 90.378 84.7657 89.8768 84.6415 89.4011C83.5065 85.0504 84.2828 82.8566 85.6259 81.2991C86.1075 80.7411 86.6878 80.3896 87.3061 80.2591C87.9244 80.1287 88.5973 80.2158 89.2632 80.5317C91.1206 81.4145 92.7169 83.1072 93.4367 87.5455C93.5153 88.0308 93.8979 88.4098 94.3831 88.4851L94.3836 88.485ZM83.216 60.8701C85.8508 60.3879 88.5847 60.3422 91.0729 60.851C92.7964 61.2043 94.46 61.7998 96.0227 62.6023C96.7282 62.9646 97.324 63.3328 97.9851 63.7619C99.4693 63.5018 101.277 61.4103 101.954 59.6675C101.424 65.6724 94.9781 73.9908 90.0808 77.687C90.0785 77.6864 90.0768 77.6857 90.075 77.685C88.9424 77.1458 87.7666 77.0046 86.6694 77.2361C85.5722 77.4676 84.5536 78.0718 83.7354 79.0225C83.7341 79.0239 83.7328 79.0258 83.7309 79.0267C77.7567 77.6241 68.5007 72.6178 65.5898 67.3396C66.9128 68.6605 69.4112 69.8439 70.8738 69.4818C71.3054 68.8227 71.7015 68.2447 72.2005 67.6283C73.3053 66.263 74.5871 65.046 76.021 64.0266C78.0921 62.5559 80.6109 61.4933 83.216 60.8701ZM82.6069 81.8305C80.7148 81.3378 78.2708 80.5404 75.7259 79.278C75.4677 80.3304 75.5928 81.1747 75.9716 81.7976C76.2396 82.2365 76.6434 82.5824 77.1283 82.8228C77.654 83.0823 78.2714 83.2222 78.9228 83.2305C80.159 83.2474 81.5043 82.8011 82.6062 81.8301" fill="#FFFB00"/>
<path fill-rule="evenodd" clip-rule="evenodd" d="M99.452 72.0699C100.397 70.6045 101.172 69.0396 101.77 67.6626L102.374 68.3848C104.353 70.8752 105.661 73.4956 106.319 76.6159L107.36 81.5684L107.928 84.1295C109.358 90.4101 112.067 96.4977 116.386 101.681L108.825 97.833L105.819 106.217L100.063 102.709L95.0165 116.785L84.7137 105.947L80.8654 111.483L74.7287 105.027L69.3673 111.601C71.2242 105.115 71.2421 98.4517 70.0137 92.1291L69.4981 89.557L68.4503 84.6059C67.7919 81.4851 67.9294 78.5602 68.7337 75.4828L68.9938 74.5783C70.0974 75.5957 71.4382 76.7142 72.8949 77.6734L72.6841 78.5317C72.2746 80.1987 72.3906 81.9416 73.2977 83.4316C73.8823 84.3906 74.7374 85.1389 75.7414 85.6358C76.7164 86.1184 77.7996 86.3539 78.8843 86.3687C79.5911 86.3782 80.2916 86.296 80.9702 86.1306C81.0018 87.0678 81.1294 88.0193 81.3267 88.9751L75.9751 93.7819L81.2343 95.4263C81.6545 95.558 82.0635 95.7235 82.4564 95.9227C87.0683 98.5868 91.5728 108.396 94.2364 113.09C94.7769 107.72 94.9347 96.9272 98.0773 92.627C98.3563 92.2866 98.6635 91.9695 98.9947 91.6792L103.141 88.0504L96.304 85.8152C96.0979 84.8613 95.8308 83.9391 95.481 83.0691C96.1686 82.9463 96.8426 82.7385 97.4854 82.4443C98.4717 81.9925 99.3674 81.3395 100.064 80.5042C100.782 79.644 101.262 78.6141 101.409 77.5006C101.637 75.7718 101.039 74.1305 99.9912 72.7705L99.4516 72.0705L99.452 72.0699Z" fill="#FFFB00"/>
</g>
<path d="M135.116 133.45L138.464 145.944L147.61 136.798L135.116 133.45Z" fill="#FFFB00"/>
<path d="M42.4285 44.6575L29.9347 41.3098L39.0808 32.1636L42.4285 44.6575Z" fill="#FFFB00"/>
</g>
<defs>
<filter id="filter0_d_462_106" x="-20.5387" y="-20.4" width="218.8" height="218.8" filterUnits="userSpaceOnUse" color-interpolation-filters="sRGB">
<feFlood flood-opacity="0" result="BackgroundImageFix"/>
<feColorMatrix in="SourceAlpha" type="matrix" values="0 0 0 0 0 0 0 0 0 0 0 0 0 0 0 0 0 0 127 0" result="hardAlpha"/>
<feOffset/>
<feGaussianBlur stdDeviation="12.2"/>
<feComposite in2="hardAlpha" operator="out"/>
<feColorMatrix type="matrix" values="0 0 0 0 1 0 0 0 0 1 0 0 0 0 1 0 0 0 0.65 0"/>
<feBlend mode="normal" in2="BackgroundImageFix" result="effect1_dropShadow_462_106"/>
<feBlend mode="normal" in="SourceGraphic" in2="effect1_dropShadow_462_106" result="shape"/>
</filter>
<filter id="filter1_b_462_106" x="9.65762" y="9.79678" width="158.407" height="158.407" filterUnits="userSpaceOnUse" color-interpolation-filters="sRGB">
<feFlood flood-opacity="0" result="BackgroundImageFix"/>
<feGaussianBlur in="BackgroundImageFix" stdDeviation="7.45"/>
<feComposite in2="SourceAlpha" operator="in" result="effect1_backgroundBlur_462_106"/>
<feBlend mode="normal" in="SourceGraphic" in2="effect1_backgroundBlur_462_106" result="shape"/>
</filter>
<clipPath id="clip0_462_106">
<rect width="48.0534" height="57.1446" fill="white" transform="translate(59.707 65.8296) rotate(-11.9135)"/>
</clipPath>
</defs>
</svg>
