<svg width="498" height="277" viewBox="0 0 498 277" fill="none" xmlns="http://www.w3.org/2000/svg">
<g filter="url(#filter0_f_443_40)">
<path d="M229.858 86.1278C229.858 110.167 188.099 129.655 136.586 129.655C85.0736 129.655 43.3145 110.167 43.3145 86.1278C43.3145 62.0886 85.0736 42.601 136.586 42.601C188.099 42.601 229.858 62.0886 229.858 86.1278Z" fill="#558426"/>
</g>
<g filter="url(#filter1_f_443_40)">
<path d="M316.522 193.85C312.366 217.527 265.946 229.164 212.842 219.841C159.738 210.518 120.058 183.767 124.214 160.09C128.371 136.413 174.79 124.776 227.894 134.099C280.999 143.421 320.679 170.173 316.522 193.85Z" fill="#66AA28" fill-opacity="0.84"/>
</g>
<g filter="url(#filter2_f_443_40)">
<path d="M460.835 219.631C456.678 243.308 410.259 254.945 357.154 245.623C304.05 236.3 264.37 209.548 268.527 185.871C272.683 162.194 319.102 150.557 372.207 159.88C425.311 169.203 464.991 195.954 460.835 219.631Z" fill="#88C039"/>
</g>
<g filter="url(#filter3_f_443_40)">
<path d="M469.71 96.4024C466.888 112.478 435.371 120.379 399.315 114.049C363.259 107.72 336.318 89.5564 339.14 73.4805C341.962 57.4046 373.479 49.5038 409.535 55.8335C445.591 62.1632 472.532 80.3265 469.71 96.4024Z" fill="#66AA28" fill-opacity="0.7"/>
</g>
<path d="M65.2739 103.692C65.1314 103.695 64.8561 103.737 64.4481 103.818C64.0575 103.881 63.5961 103.963 63.0638 104.065C62.5315 104.166 61.973 104.287 61.3881 104.425C60.8028 104.546 60.2529 104.657 59.7385 104.758C59.224 104.859 58.7806 104.95 58.4082 105.03C58.0176 105.093 57.76 105.126 57.6353 105.129C56.4418 105.157 55.8304 104.548 55.8009 103.301C55.7929 102.962 55.8208 102.632 55.8845 102.31C55.9299 101.97 56.0296 101.664 56.1836 101.394C56.3372 101.105 56.5453 100.859 56.8078 100.657C57.0704 100.455 57.4057 100.313 57.8137 100.232C59.8902 99.8623 61.9573 99.4749 64.0152 99.0698C66.073 98.6648 68.1482 98.2415 70.2409 97.7999C70.7019 97.6999 71.1186 97.6099 71.491 97.5298C71.8629 97.4319 72.2788 97.3062 72.7385 97.1528C73.2339 96.9985 73.774 96.8521 74.3589 96.7135C74.9434 96.5571 75.5282 96.4185 76.1135 96.2978C76.7166 96.1766 77.2934 96.0739 77.8439 95.9896C78.4122 95.9049 78.928 95.857 79.3911 95.8461C79.9611 95.8326 80.393 96.0096 80.6868 96.3769C80.9981 96.726 81.1615 97.2301 81.177 97.8891C81.185 98.2276 81.1661 98.5577 81.1202 98.8796C81.0739 99.1837 80.9825 99.4621 80.8459 99.7148C80.7093 99.9676 80.5182 100.177 80.2726 100.343C80.027 100.509 79.7087 100.615 79.3177 100.66C78.3057 100.826 77.2234 101.03 76.0706 101.271C74.9174 101.495 73.9163 101.741 73.0672 102.011C72.7134 102.126 72.4504 102.31 72.2782 102.564C72.1056 102.8 71.9967 103.096 71.9517 103.454C71.9063 103.793 71.8788 104.142 71.8694 104.498C71.8774 104.837 71.8852 105.166 71.8928 105.487C71.9105 106.235 71.9549 106.983 72.026 107.729C72.1149 108.476 72.1949 109.223 72.266 109.969C72.4869 112.531 72.7873 115.063 73.1673 117.567C73.5651 120.071 73.9902 122.6 74.4427 125.156C74.4804 125.244 74.5003 125.333 74.5024 125.422C74.5045 125.511 74.5066 125.6 74.5087 125.689C74.5319 126.669 73.9961 127.377 72.9014 127.812L71.7079 128.215C71.3898 128.329 71.0793 128.39 70.7765 128.397C70.3134 128.408 69.9357 128.266 69.6436 127.97C69.3519 127.691 69.1547 127.268 69.0522 126.7C68.4811 123.648 67.9727 120.613 67.5271 117.593C67.0811 114.556 66.7683 111.498 66.5886 108.419C66.5412 107.921 66.5016 107.379 66.4699 106.791C66.4382 106.204 66.415 105.599 66.4003 104.975C66.3797 104.102 66.0042 103.674 65.2739 103.692ZM100.506 104.811C100.502 104.615 100.45 104.322 100.352 103.932C100.254 103.543 100.136 103.1 99.9998 102.604C99.8629 102.09 99.7076 101.551 99.5338 100.984C99.3596 100.4 99.2037 99.8337 99.0659 99.2844C98.9282 98.7352 98.8091 98.2212 98.7087 97.7423C98.6083 97.2635 98.5543 96.8638 98.5467 96.5431C98.537 96.1334 98.645 95.8012 98.8707 95.5463C99.096 95.2737 99.385 95.0619 99.7379 94.911C100.091 94.7601 100.471 94.653 100.88 94.5899C101.288 94.5268 101.68 94.4908 102.054 94.482C102.517 94.4711 102.965 94.5941 103.399 94.8512C103.85 95.0901 104.164 95.5371 104.34 96.1924C104.552 96.8825 104.729 97.5823 104.87 98.2918C105.029 98.9832 105.17 99.666 105.293 100.34C105.416 100.997 105.529 101.636 105.632 102.257C105.754 102.878 105.875 103.454 105.994 103.986C106.111 104.411 106.253 104.747 106.419 104.992C106.603 105.237 106.812 105.428 107.047 105.565C107.3 105.684 107.56 105.758 107.828 105.788C108.114 105.816 108.417 105.827 108.738 105.82C109.094 105.811 109.476 105.766 109.884 105.686C110.292 105.605 110.692 105.56 111.084 105.55C111.333 105.544 111.575 105.583 111.808 105.667C112.059 105.732 112.285 105.869 112.486 106.079C112.687 106.27 112.845 106.542 112.96 106.896C113.093 107.249 113.166 107.702 113.179 108.254C113.19 108.717 113.11 109.111 112.94 109.436C112.769 109.743 112.435 109.956 111.939 110.075L110.982 110.311C110.681 110.372 110.397 110.423 110.13 110.465C109.882 110.489 109.562 110.523 109.17 110.568C108.335 110.677 107.925 111.052 107.941 111.693C107.942 111.747 107.983 111.986 108.064 112.412C108.146 112.838 108.248 113.37 108.37 114.009C108.509 114.629 108.659 115.321 108.82 116.083C108.98 116.828 109.13 117.546 109.271 118.238C109.43 118.929 109.57 119.55 109.69 120.1C109.809 120.631 109.898 121.013 109.957 121.243C110.056 121.633 110.134 121.934 110.193 122.146C110.251 122.359 110.285 122.652 110.294 123.026C110.3 123.311 110.227 123.598 110.073 123.887C109.919 124.158 109.684 124.404 109.369 124.625C109.071 124.846 108.701 125.024 108.259 125.159C107.817 125.312 107.311 125.396 106.741 125.409C106.117 125.424 105.659 125.247 105.365 124.88C105.088 124.495 104.891 124.054 104.772 123.557C104.519 122.637 104.274 121.689 104.037 120.714C103.818 119.739 103.599 118.773 103.38 117.816C103.179 116.858 102.979 115.927 102.779 115.023C102.597 114.101 102.425 113.222 102.263 112.389C102.164 111.999 101.997 111.718 101.762 111.545C101.525 111.355 101.229 111.263 100.873 111.272C99.6617 111.301 98.4426 111.374 97.2156 111.492C96.0061 111.592 94.8141 111.682 93.6397 111.764C93.2309 111.809 92.9134 111.95 92.6873 112.187C92.4612 112.424 92.3526 112.73 92.3614 113.104C92.3812 113.941 92.4097 114.769 92.4469 115.588C92.484 116.407 92.5127 117.244 92.5329 118.099C92.556 119.079 92.562 120.085 92.5508 121.119C92.5574 122.153 92.5453 123.151 92.5146 124.114C92.4874 124.471 92.3875 124.768 92.2148 125.004C92.06 125.239 91.8506 125.431 91.5868 125.58C91.3408 125.728 91.0492 125.833 90.712 125.895C90.3927 125.956 90.0638 125.99 89.7253 125.998C88.8881 126.018 88.2346 125.891 87.7648 125.617C87.2953 125.36 87.0528 124.903 87.0373 124.244C87.0137 123.246 87.0158 122.204 87.0436 121.116C87.0713 120.028 87.0722 118.932 87.0461 117.827C87.0284 117.079 87.0025 116.358 86.9682 115.664C86.9336 114.952 86.9074 114.222 86.8898 113.474C86.8818 113.135 86.7957 112.888 86.6316 112.731C86.4849 112.556 86.3034 112.418 86.0872 112.316C85.8709 112.214 85.6281 112.122 85.3588 112.039C85.0891 111.939 84.845 111.793 84.6267 111.602C84.4083 111.411 84.2145 111.131 84.0454 110.76C83.894 110.39 83.8106 109.875 83.795 109.216C83.7866 108.86 83.8424 108.582 83.9625 108.383C84.0999 108.166 84.2652 107.993 84.4581 107.863C84.669 107.734 84.8893 107.631 85.1192 107.554C85.3486 107.459 85.5599 107.347 85.7528 107.218C85.9637 107.088 86.1293 106.933 86.2498 106.752C86.3876 106.553 86.4524 106.275 86.444 105.918C86.4389 105.705 86.4241 105.456 86.3996 105.171C86.3746 104.869 86.3501 104.584 86.3259 104.317C86.3018 104.05 86.2785 103.819 86.2561 103.624C86.2332 103.41 86.221 103.268 86.2193 103.197C86.205 102.591 86.2738 102.108 86.4257 101.748C86.5949 101.37 86.8022 101.089 87.0473 100.905C87.2921 100.703 87.5652 100.572 87.8668 100.511C88.1857 100.433 88.4877 100.39 88.7727 100.383C89.8414 100.358 90.5855 100.545 91.0049 100.945C91.4416 101.327 91.6869 101.9 91.7406 102.666L91.9137 105.468C91.9595 105.895 92.083 106.222 92.2844 106.449C92.4854 106.658 92.8086 106.757 93.2539 106.747L99.314 106.39C99.8297 106.342 100.156 106.192 100.292 105.939C100.447 105.686 100.518 105.31 100.506 104.811ZM119.718 118.045C119.664 118.046 119.575 118.057 119.451 118.078C119.345 118.098 119.22 118.119 119.078 118.14C118.954 118.161 118.83 118.182 118.705 118.202C118.581 118.223 118.483 118.234 118.412 118.236C117.913 118.248 117.472 118.053 117.088 117.652C116.704 117.234 116.504 116.677 116.488 115.982C116.477 115.519 116.618 115.07 116.91 114.636C117.203 114.201 117.667 113.834 118.301 113.534C118.495 113.44 118.644 113.338 118.748 113.229C118.87 113.101 118.928 112.931 118.923 112.717C118.91 112.147 118.878 111.542 118.827 110.901C118.794 110.243 118.74 109.478 118.666 108.606C118.644 108.428 118.578 108.261 118.467 108.103C118.374 107.945 118.263 107.769 118.134 107.576C118.022 107.365 117.918 107.135 117.823 106.888C117.728 106.641 117.676 106.33 117.668 105.956C117.66 105.618 117.695 105.234 117.774 104.804C117.87 104.356 118.066 103.942 118.36 103.561C118.671 103.161 119.1 102.83 119.646 102.568C120.21 102.287 120.946 102.136 121.854 102.115C122.228 102.106 122.541 102.134 122.792 102.199C123.043 102.265 123.259 102.349 123.44 102.451C123.638 102.536 123.809 102.612 123.953 102.68C124.115 102.747 124.276 102.779 124.436 102.775C124.721 102.769 125.29 102.702 126.143 102.575C126.995 102.448 128.016 102.272 129.204 102.048C130.411 101.823 131.733 101.569 133.17 101.286C134.625 101.002 136.097 100.7 137.586 100.38C139.075 100.041 140.529 99.704 141.947 99.3676C143.364 99.0311 144.649 98.7067 145.8 98.3943C146.154 98.2968 146.465 98.2449 146.732 98.2386C147.106 98.2298 147.402 98.3119 147.62 98.485C147.855 98.6398 148.029 98.8407 148.142 99.0875C148.255 99.3344 148.324 99.6179 148.349 99.9381C148.392 100.24 148.417 100.525 148.423 100.792C148.434 101.255 148.284 101.695 147.973 102.112C147.679 102.511 147.179 102.835 146.472 103.084C144.721 103.642 142.95 104.138 141.161 104.572C139.388 104.989 137.597 105.378 135.788 105.742C133.978 106.088 132.159 106.407 130.33 106.7C128.501 106.992 126.682 107.285 124.871 107.577C124.622 107.619 124.437 107.721 124.316 107.884C124.195 108.03 124.137 108.227 124.143 108.477L124.169 109.572C124.176 109.875 124.193 110.186 124.218 110.507C124.243 110.827 124.286 111.12 124.346 111.386C124.423 111.651 124.518 111.872 124.629 112.047C124.739 112.205 124.884 112.282 125.062 112.278C125.489 112.268 126.146 112.163 127.033 111.964C127.937 111.764 128.947 111.527 130.063 111.251C131.197 110.957 132.375 110.644 133.597 110.312C134.836 109.962 136.005 109.649 137.104 109.373C138.202 109.08 139.167 108.835 140 108.637C140.833 108.439 141.419 108.336 141.757 108.328C142.256 108.316 142.634 108.494 142.893 108.862C143.168 109.212 143.357 109.662 143.459 110.212C143.461 110.301 143.472 110.381 143.492 110.452C143.511 110.523 143.522 110.603 143.524 110.692C143.536 111.209 143.387 111.693 143.077 112.146C142.784 112.581 142.24 112.915 141.443 113.147C141.231 113.224 140.807 113.349 140.169 113.525C139.531 113.683 138.778 113.879 137.911 114.113C137.042 114.33 136.103 114.566 135.094 114.821C134.084 115.077 133.092 115.332 132.117 115.586C131.143 115.823 130.231 116.059 129.381 116.293C128.548 116.508 127.866 116.685 127.335 116.822C126.857 116.958 126.565 117.063 126.46 117.137C126.372 117.21 126.33 117.3 126.333 117.407C126.377 117.798 126.582 118.159 126.946 118.489C127.328 118.819 127.799 119.119 128.358 119.391C128.934 119.663 129.573 119.906 130.273 120.121C130.991 120.336 131.726 120.515 132.478 120.657C133.247 120.782 133.998 120.88 134.73 120.952C135.463 121.023 136.141 121.052 136.764 121.037C137.031 121.031 137.414 121.022 137.913 121.01C138.412 120.998 138.955 120.977 139.542 120.945C140.147 120.895 140.761 120.836 141.383 120.768C142.023 120.699 142.591 120.615 143.088 120.514C143.602 120.395 144.017 120.26 144.335 120.11C144.669 119.942 144.834 119.751 144.829 119.537C144.824 119.341 144.748 119.138 144.601 118.927C144.471 118.717 144.403 118.486 144.397 118.237C144.389 117.881 144.479 117.531 144.667 117.188C144.854 116.827 145.096 116.51 145.393 116.235C145.707 115.943 146.058 115.712 146.446 115.542C146.851 115.354 147.259 115.256 147.668 115.246C148.185 115.234 148.66 115.329 149.092 115.533C149.524 115.719 149.896 115.977 150.206 116.309C150.535 116.622 150.784 116.99 150.954 117.414C151.143 117.837 151.242 118.271 151.252 118.717C151.28 119.892 150.868 120.918 150.015 121.794C149.18 122.669 148.075 123.399 146.699 123.984C145.323 124.587 143.765 125.042 142.026 125.351C140.287 125.677 138.536 125.861 136.772 125.903C134.706 125.951 132.814 125.854 131.098 125.609C129.381 125.382 127.839 124.982 126.471 124.408C125.103 123.835 123.918 123.078 122.915 122.14C121.913 121.183 121.083 120.018 120.427 118.643C120.203 118.238 119.967 118.039 119.718 118.045ZM173.005 103.82C172.667 103.828 172.276 103.9 171.834 104.035C171.391 104.152 170.931 104.297 170.454 104.469C169.976 104.622 169.499 104.767 169.021 104.903C168.56 105.021 168.143 105.085 167.769 105.093C167.377 105.103 167.064 105.048 166.829 104.929C166.612 104.791 166.447 104.617 166.335 104.405C166.224 104.194 166.156 103.964 166.132 103.715C166.108 103.466 166.094 103.226 166.088 102.994C166.072 102.318 166.255 101.761 166.637 101.324C167.037 100.887 167.607 100.517 168.348 100.214C169.089 99.8937 169.983 99.6231 171.029 99.4024C172.093 99.1634 173.29 98.9034 174.62 98.6225C176.713 98.1809 178.62 97.8329 180.343 97.5783C182.084 97.3233 183.737 97.1328 185.302 97.0067C186.885 96.8624 188.433 96.7634 189.947 96.7098C191.46 96.6563 193.054 96.6097 194.729 96.5701C195.227 96.5584 195.621 96.6115 195.909 96.7294C196.197 96.8474 196.405 97.0028 196.535 97.1958C196.682 97.3884 196.767 97.6092 196.791 97.8581C196.832 98.1067 196.856 98.3556 196.862 98.605C196.869 98.89 196.832 99.2028 196.75 99.5433C196.687 99.8656 196.56 100.172 196.371 100.461C196.199 100.733 195.955 100.961 195.639 101.147C195.34 101.332 194.968 101.43 194.523 101.441L192.385 101.491C191.53 101.511 190.622 101.542 189.661 101.582C188.699 101.605 187.746 101.645 186.803 101.703C185.859 101.743 184.952 101.8 184.08 101.874C183.227 101.948 182.463 102.046 181.788 102.169C181.131 102.274 180.608 102.402 180.22 102.554C179.831 102.705 179.64 102.888 179.645 103.102C179.65 103.316 179.738 103.67 179.91 104.165C180.083 104.66 180.291 105.199 180.537 105.781C180.782 106.346 181.027 106.91 181.272 107.475C181.534 108.021 181.75 108.479 181.919 108.849C182.069 109.149 182.234 109.35 182.415 109.453C182.595 109.555 182.837 109.603 183.14 109.596C183.87 109.579 184.617 109.516 185.381 109.409C186.145 109.302 186.909 109.186 187.672 109.061C188.453 108.918 189.225 108.793 189.989 108.686C190.771 108.578 191.544 108.515 192.31 108.497C192.738 108.487 193.087 108.559 193.358 108.713C193.646 108.849 193.873 109.03 194.039 109.258C194.205 109.468 194.317 109.697 194.376 109.945C194.453 110.193 194.494 110.406 194.498 110.584C194.517 111.386 194.282 111.997 193.793 112.419C193.304 112.822 192.634 113.132 191.783 113.348C190.933 113.564 189.939 113.722 188.8 113.82C187.68 113.917 186.489 114.044 185.227 114.198L184.587 114.267C184.356 114.308 184.18 114.392 184.058 114.52C183.936 114.648 183.878 114.809 183.883 115.005C183.884 115.059 183.894 115.103 183.912 115.138C183.931 115.173 183.941 115.218 183.942 115.271C184.116 115.855 184.319 116.51 184.55 117.235C184.781 117.943 184.993 118.65 185.188 119.359C185.401 120.067 185.577 120.74 185.717 121.378C185.857 122.016 185.932 122.54 185.942 122.95C185.961 123.769 185.664 124.4 185.051 124.842C184.455 125.284 183.596 125.518 182.474 125.545C182.064 125.555 181.661 125.466 181.265 125.279C180.886 125.11 180.647 124.777 180.546 124.28C180.227 122.827 179.872 121.409 179.483 120.028C179.094 118.629 178.687 117.24 178.262 115.86C178.09 115.383 177.773 115.15 177.31 115.161C176.775 115.173 176.169 115.17 175.492 115.15C174.832 115.13 174.153 115.075 173.456 114.984C172.759 114.894 172.079 114.776 171.416 114.631C170.77 114.468 170.186 114.251 169.663 113.978C169.157 113.705 168.74 113.376 168.41 112.991C168.098 112.607 167.935 112.147 167.923 111.613C167.915 111.274 167.987 110.943 168.14 110.619C168.292 110.276 168.49 109.978 168.733 109.722C168.976 109.449 169.239 109.229 169.52 109.062C169.819 108.895 170.102 108.808 170.369 108.801C170.69 108.794 171.039 108.866 171.417 109.017C171.795 109.169 172.2 109.337 172.632 109.523C173.064 109.709 173.522 109.877 174.007 110.025C174.51 110.174 175.046 110.242 175.616 110.228C175.901 110.221 176.04 110.067 176.033 109.764C176.026 109.479 175.964 109.106 175.846 108.645C175.746 108.184 175.61 107.706 175.438 107.211C175.265 106.699 175.066 106.204 174.841 105.728C174.634 105.234 174.41 104.821 174.17 104.488C174.023 104.277 173.867 104.112 173.704 103.991C173.559 103.87 173.326 103.813 173.005 103.82ZM199.433 97.769C199.426 97.4483 199.499 97.1525 199.653 96.8816C199.806 96.5928 200.023 96.347 200.304 96.1444C200.584 95.9239 200.909 95.7469 201.28 95.6134C201.669 95.4794 202.078 95.4074 202.505 95.3973C203.342 95.3775 203.96 95.4966 204.358 95.7545C204.756 96.0125 205.007 96.4254 205.109 96.9933C205.468 99.3552 205.77 101.594 206.016 103.709C206.28 105.806 206.497 107.814 206.667 109.735C206.836 111.638 206.969 113.471 207.064 115.233C207.159 116.977 207.225 118.669 207.264 120.308C207.285 121.198 206.98 121.874 206.349 122.334C205.736 122.794 204.824 123.039 203.613 123.067C203.061 123.08 202.621 122.957 202.294 122.697C201.986 122.455 201.826 122.085 201.814 121.586C201.741 118.522 201.576 115.657 201.317 112.989C201.075 110.304 200.814 107.922 200.533 105.843C200.252 103.765 199.997 102.033 199.769 100.648C199.557 99.2453 199.445 98.2855 199.433 97.769ZM221.959 101.942C221.606 102.093 221.261 102.172 220.922 102.18C220.067 102.201 219.467 101.707 219.123 100.699C219.027 100.434 218.96 100.213 218.92 100.035C218.898 99.8578 218.885 99.6977 218.882 99.5552C218.862 98.718 219.319 98.0834 220.254 97.6514C222.106 96.8591 223.998 96.2084 225.929 95.6994C227.859 95.1905 229.813 94.9126 231.79 94.8659C232.717 94.844 233.627 94.9205 234.523 95.0954C235.436 95.2699 236.254 95.5892 236.978 96.0533C237.702 96.5174 238.296 97.145 238.76 97.936C239.225 98.7271 239.471 99.7282 239.5 100.939C239.52 101.794 239.361 102.618 239.023 103.41C238.703 104.202 238.267 104.961 237.714 105.687C237.16 106.413 236.526 107.105 235.811 107.763C235.096 108.422 234.362 109.027 233.608 109.58C232.855 110.132 232.11 110.64 231.372 111.103C230.634 111.548 229.966 111.938 229.368 112.273C228.858 112.588 228.608 112.906 228.615 113.227C228.624 113.601 228.907 113.888 229.464 114.089C231.386 114.721 233.352 115.307 235.36 115.848C237.369 116.388 239.407 117 241.472 117.682C242.443 118.015 242.937 118.556 242.954 119.304C242.963 119.66 242.864 120.028 242.66 120.407C242.472 120.768 242.257 121.103 242.015 121.412C241.516 122.19 240.884 122.588 240.118 122.606C239.851 122.612 239.52 122.567 239.126 122.469C237.958 122.051 236.7 121.617 235.352 121.168C234.023 120.718 232.658 120.278 231.258 119.848C229.875 119.399 228.51 118.977 227.164 118.581C225.818 118.167 224.57 117.796 223.422 117.466C223.01 117.369 222.732 117.322 222.59 117.326C222.447 117.329 222.333 117.367 222.245 117.441C222.175 117.496 222.142 117.621 222.147 117.817C222.148 117.871 222.159 117.942 222.179 118.03C222.198 118.101 222.209 118.181 222.211 118.27C222.271 118.536 222.342 118.891 222.424 119.335C222.523 119.76 222.613 120.203 222.696 120.665C222.796 121.126 222.877 121.57 222.941 121.996C223.004 122.404 223.039 122.742 223.045 123.009C223.069 124.007 222.542 124.714 221.464 125.132L220.271 125.534C220.094 125.592 219.935 125.631 219.792 125.652C219.651 125.691 219.5 125.713 219.34 125.717C218.36 125.74 217.776 125.148 217.587 123.94C217.083 120.708 216.455 117.524 215.703 114.387C214.97 111.25 214.139 108.124 213.21 105.009C213.152 104.832 213.113 104.682 213.092 104.557C213.089 104.415 213.086 104.29 213.083 104.183C213.061 103.239 213.553 102.586 214.561 102.224C214.932 102.09 215.232 101.985 215.462 101.908C215.71 101.831 215.905 101.773 216.046 101.734C216.205 101.677 216.32 101.639 216.391 101.619C216.48 101.599 216.56 101.588 216.631 101.587C217.593 101.564 218.229 102.092 218.54 103.172C218.947 104.553 219.326 105.889 219.677 107.182C220.046 108.475 220.379 109.75 220.676 111.008C220.834 111.628 221.099 111.934 221.473 111.925C221.58 111.923 221.704 111.902 221.846 111.863C221.987 111.806 222.155 111.731 222.349 111.637C222.912 111.321 223.588 110.931 224.379 110.466C225.188 110.002 226.023 109.492 226.883 108.937C227.761 108.364 228.62 107.764 229.46 107.138C230.319 106.512 231.08 105.888 231.742 105.266C232.422 104.644 232.969 104.034 233.383 103.437C233.797 102.839 233.997 102.281 233.985 101.765C233.978 101.444 233.917 101.152 233.804 100.887C233.709 100.622 233.525 100.394 233.253 100.205C232.981 100.015 232.613 99.8724 232.147 99.7765C231.699 99.6801 231.128 99.6401 230.433 99.6566C229.756 99.6725 229.045 99.7517 228.3 99.8941C227.572 100.018 226.846 100.187 226.12 100.4C225.394 100.613 224.678 100.853 223.972 101.119C223.265 101.385 222.594 101.66 221.959 101.942ZM250.819 110.564C250.844 111.632 251.126 112.624 251.665 113.538C252.221 114.434 252.934 115.219 253.806 115.893C254.677 116.55 255.669 117.061 256.783 117.427C257.896 117.775 259.031 117.935 260.189 117.908C260.545 117.899 260.91 117.864 261.283 117.802C261.655 117.722 261.991 117.598 262.29 117.43C262.589 117.263 262.833 117.052 263.023 116.798C263.213 116.526 263.303 116.195 263.294 115.803C263.276 115.055 262.992 114.322 262.44 113.604C261.906 112.886 261.203 112.181 260.332 111.488C259.459 110.778 258.463 110.08 257.341 109.394C256.22 108.689 255.08 107.994 253.924 107.309C252.767 106.623 251.628 105.937 250.507 105.251C249.385 104.547 248.388 103.848 247.516 103.156C246.644 102.446 245.932 101.732 245.381 101.014C244.846 100.278 244.57 99.5365 244.553 98.7883C244.536 98.0758 244.698 97.4126 245.04 96.7985C245.4 96.1663 245.876 95.5936 246.47 95.0805C247.064 94.5675 247.757 94.1055 248.549 93.6947C249.342 93.2839 250.171 92.9346 251.038 92.6468C251.904 92.359 252.772 92.1425 253.642 91.9971C254.529 91.8336 255.374 91.7424 256.175 91.7234C256.763 91.7095 257.405 91.7122 258.1 91.7314C258.813 91.7324 259.474 91.797 260.083 91.9252C260.71 92.0351 261.231 92.2189 261.647 92.4764C262.063 92.7339 262.277 93.112 262.289 93.6108C262.292 93.7711 262.27 93.9766 262.223 94.2272C262.175 94.46 262.033 94.8555 261.796 95.4136C261.559 95.936 261.275 96.3348 260.942 96.61C260.628 96.867 260.212 97.0015 259.696 97.0137C258.965 97.031 258.188 96.9691 257.365 96.8282C256.56 96.669 255.747 96.5991 254.928 96.6184C254.482 96.629 254.029 96.6664 253.567 96.7308C253.122 96.7769 252.715 96.8668 252.343 97.0003C251.972 97.116 251.673 97.2924 251.447 97.5294C251.221 97.7486 251.111 98.0275 251.119 98.3659C251.127 98.7043 251.377 99.0816 251.868 99.4978C252.377 99.9135 253.038 100.37 253.852 100.868C254.683 101.365 255.623 101.913 256.671 102.512C257.718 103.093 258.785 103.728 259.87 104.415C260.973 105.084 262.051 105.807 263.103 106.584C264.155 107.343 265.092 108.159 265.914 109.031C266.754 109.884 267.426 110.795 267.93 111.763C268.452 112.731 268.726 113.741 268.75 114.792C268.781 116.074 268.514 117.212 267.949 118.206C267.384 119.199 266.647 120.037 265.736 120.717C264.825 121.398 263.813 121.912 262.698 122.26C261.584 122.625 260.492 122.82 259.424 122.845C258.337 122.871 257.229 122.763 256.101 122.522C254.991 122.299 253.913 121.959 252.869 121.503C251.825 121.064 250.841 120.526 249.917 119.888C249.01 119.232 248.218 118.503 247.539 117.699C246.86 116.877 246.314 115.99 245.899 115.037C245.502 114.084 245.291 113.082 245.267 112.031C245.256 111.586 245.272 111.14 245.315 110.694C245.375 110.229 245.482 109.825 245.634 109.483C245.786 109.123 246.002 108.833 246.282 108.612C246.561 108.374 246.924 108.25 247.369 108.239C247.512 108.236 247.672 108.25 247.851 108.281C248.03 108.295 248.344 108.367 248.792 108.499C249.313 108.648 249.773 108.895 250.173 109.242C250.591 109.571 250.806 110.011 250.819 110.564ZM277.457 98.6794C277.315 98.6828 277.039 98.7249 276.631 98.8058C276.241 98.8685 275.779 98.9507 275.247 99.0524C274.715 99.1541 274.156 99.2742 273.571 99.4128C272.986 99.5336 272.436 99.6446 271.922 99.7458C271.407 99.8471 270.964 99.9378 270.592 100.018C270.201 100.081 269.943 100.113 269.819 100.116C268.625 100.145 268.014 99.5352 267.984 98.2883C267.976 97.9499 268.004 97.6195 268.068 97.2972C268.113 96.9575 268.213 96.6521 268.367 96.3812C268.52 96.0924 268.729 95.8469 268.991 95.6446C269.254 95.4424 269.589 95.3008 269.997 95.2198C272.073 94.85 274.141 94.4625 276.198 94.0575C278.256 93.6524 280.332 93.2291 282.424 92.7876C282.885 92.6876 283.302 92.5975 283.674 92.5175C284.046 92.4196 284.462 92.2939 284.922 92.1404C285.417 91.9862 285.957 91.8397 286.542 91.7012C287.127 91.5448 287.711 91.4062 288.297 91.2854C288.9 91.1643 289.477 91.0615 290.027 90.9772C290.596 90.8925 291.111 90.8447 291.574 90.8337C292.144 90.8203 292.576 90.9972 292.87 91.3645C293.181 91.7136 293.345 92.2177 293.36 92.8768C293.368 93.2152 293.349 93.5454 293.303 93.8673C293.257 94.1713 293.166 94.4498 293.029 94.7025C292.893 94.9552 292.701 95.1647 292.456 95.3309C292.21 95.4971 291.892 95.6027 291.501 95.6475C290.489 95.814 289.407 96.0178 288.254 96.2589C287.101 96.4822 286.1 96.7286 285.25 96.9982C284.897 97.1135 284.634 97.2979 284.461 97.5515C284.289 97.7873 284.18 98.0839 284.135 98.4414C284.09 98.7811 284.062 99.1293 284.053 99.486C284.061 99.8244 284.068 100.154 284.076 100.475C284.094 101.223 284.138 101.97 284.209 102.717C284.298 103.464 284.378 104.21 284.449 104.957C284.67 107.518 284.971 110.051 285.351 112.555C285.748 115.058 286.173 117.588 286.626 120.144C286.664 120.232 286.684 120.321 286.686 120.41C286.688 120.499 286.69 120.588 286.692 120.677C286.715 121.657 286.179 122.364 285.085 122.8L283.891 123.203C283.573 123.317 283.263 123.378 282.96 123.385C282.497 123.396 282.119 123.253 281.827 122.957C281.535 122.679 281.338 122.256 281.235 121.688C280.664 118.636 280.156 115.6 279.71 112.581C279.264 109.544 278.952 106.486 278.772 103.407C278.724 102.909 278.685 102.366 278.653 101.779C278.622 101.192 278.598 100.586 278.584 99.9627C278.563 99.0899 278.187 98.6621 277.457 98.6794ZM308.649 99.7337C308.419 99.7748 308.223 99.8061 308.063 99.8277C307.903 99.8493 307.77 99.8614 307.663 99.8639C307.057 99.8426 306.625 99.6835 306.369 99.3866C306.112 99.0718 305.975 98.5493 305.957 97.819C305.923 96.3762 306.597 95.4513 307.977 95.0445C309.199 94.7304 310.513 94.4944 311.917 94.3365C313.321 94.1608 314.887 94.0525 316.614 94.0117C318.93 93.957 321.233 94.1254 323.524 94.5168C325.832 94.9078 328.028 95.4708 330.113 96.2058C332.215 96.9225 334.17 97.7942 335.976 98.8208C337.782 99.8297 339.35 100.942 340.68 102.158C342.027 103.356 343.082 104.632 343.845 105.987C344.625 107.323 345.031 108.677 345.064 110.048C345.096 111.438 344.656 112.776 343.742 114.063C342.845 115.331 341.615 116.466 340.052 117.465C338.49 118.464 336.673 119.273 334.603 119.893C332.532 120.512 330.357 120.848 328.077 120.902C326.26 120.945 324.359 120.821 322.374 120.529C320.388 120.237 318.194 119.746 315.789 119.054C314.678 118.777 314.109 118.113 314.085 117.062C314.079 116.831 314.127 116.616 314.23 116.417C314.332 116.219 314.434 116.029 314.537 115.849C314.658 115.668 314.769 115.496 314.872 115.333C314.975 115.152 315.024 114.973 315.02 114.795C314.996 113.779 314.917 112.694 314.783 111.539C314.666 110.383 314.505 109.228 314.3 108.075C314.112 106.921 313.89 105.821 313.634 104.776C313.395 103.712 313.15 102.773 312.899 101.959C312.648 101.145 312.392 100.501 312.132 100.026C311.888 99.5324 311.669 99.2881 311.473 99.2927C311.17 99.2999 310.797 99.3444 310.353 99.4261C309.927 99.5075 309.359 99.61 308.649 99.7337ZM318.926 99.0632C318.409 99.0754 318.155 99.2596 318.164 99.6159C318.166 99.7049 318.196 99.8557 318.255 100.068C318.313 100.281 318.401 100.617 318.519 101.078C318.697 101.822 318.867 102.62 319.03 103.472C319.193 104.323 319.358 105.282 319.526 106.347C319.693 107.395 319.855 108.576 320.01 109.891C320.184 111.188 320.361 112.655 320.542 114.29C320.566 114.557 320.813 114.809 321.282 115.048C321.75 115.268 322.37 115.468 323.141 115.645C323.911 115.805 324.787 115.936 325.77 116.038C326.77 116.121 327.795 116.15 328.846 116.126C330.235 116.093 331.559 115.901 332.816 115.551C334.09 115.182 335.202 114.71 336.151 114.135C337.117 113.56 337.877 112.9 338.43 112.156C339.001 111.412 339.277 110.648 339.258 109.865C339.227 108.564 338.681 107.312 337.619 106.107C336.574 104.902 335.141 103.822 333.318 102.867C331.495 101.894 329.355 101.08 326.898 100.425C324.44 99.7528 321.783 99.2987 318.926 99.0632ZM362.298 122.233C360.357 122.278 358.559 121.991 356.905 121.371C355.268 120.75 353.848 119.866 352.645 118.718C351.441 117.552 350.49 116.158 349.792 114.535C349.095 112.911 348.722 111.111 348.676 109.134C348.65 108.065 348.715 107.039 348.87 106.055C349.043 105.053 349.279 104.121 349.579 103.258C349.714 102.916 349.779 102.674 349.776 102.532C349.772 102.354 349.723 102.185 349.631 102.027C349.538 101.869 349.436 101.702 349.325 101.526C349.214 101.351 349.111 101.166 349.017 100.972C348.924 100.778 348.874 100.557 348.868 100.307C348.85 99.5593 349.261 98.8189 350.099 98.0862C350.937 97.3357 352.053 96.6677 353.447 96.0823C354.84 95.4791 356.424 94.9872 358.197 94.6067C359.97 94.2083 361.792 93.9871 363.662 93.9429C365.96 93.8886 368.033 94.1337 369.881 94.6782C371.748 95.2222 373.335 96.0313 374.644 97.1054C375.97 98.1612 376.999 99.4647 377.73 101.016C378.462 102.567 378.851 104.322 378.897 106.281C378.949 108.472 378.561 110.531 377.733 112.458C376.905 114.366 375.742 116.034 374.243 117.459C372.761 118.884 370.997 120.022 368.95 120.872C366.902 121.723 364.685 122.176 362.298 122.233ZM373.552 107.45C373.519 106.061 373.249 104.82 372.742 103.727C372.235 102.634 371.518 101.724 370.592 100.997C369.666 100.253 368.53 99.7004 367.185 99.3401C365.857 98.9615 364.356 98.792 362.681 98.8316C359.742 98.901 357.542 99.7015 356.081 101.233C354.638 102.746 353.951 104.973 354.02 107.912C354.054 109.337 354.307 110.641 354.781 111.824C355.254 112.989 355.901 113.989 356.723 114.825C357.545 115.644 358.513 116.28 359.629 116.735C360.762 117.172 361.996 117.374 363.332 117.343C364.864 117.306 366.266 117.042 367.538 116.548C368.809 116.037 369.888 115.343 370.777 114.467C371.683 113.59 372.38 112.557 372.869 111.37C373.357 110.164 373.585 108.858 373.552 107.45ZM395.204 90.471C395.572 90.2306 395.951 90.0612 396.341 89.9629C396.731 89.8646 397.095 89.8114 397.434 89.8034C397.879 89.7929 398.281 89.8636 398.642 90.0155C399.001 90.1496 399.308 90.3294 399.563 90.5551C399.818 90.7808 400.011 91.0436 400.143 91.3434C400.292 91.6251 400.37 91.9084 400.377 92.1934C400.386 92.5853 400.262 92.9625 400.003 93.325C399.762 93.6872 399.413 93.9984 398.956 94.2587C398.042 94.815 397.278 95.2875 396.663 95.6763C396.049 96.0651 395.522 96.4161 395.084 96.7295C394.664 97.0424 394.296 97.3362 393.982 97.611C393.668 97.8857 393.354 98.1872 393.041 98.5154C392.588 98.9539 392.154 99.4542 391.74 100.017C391.325 100.579 390.956 101.14 390.63 101.7C390.322 102.242 390.067 102.765 389.865 103.269C389.681 103.772 389.593 104.184 389.6 104.505C389.607 104.772 389.683 104.984 389.829 105.141C389.975 105.298 390.182 105.373 390.449 105.367C390.734 105.36 391.044 105.255 391.378 105.051C392.45 104.42 393.577 103.849 394.759 103.34C395.959 102.831 397.169 102.392 398.391 102.025C399.612 101.657 400.835 101.379 402.06 101.19C403.285 100.982 404.476 100.865 405.634 100.838C407.469 100.794 409.157 100.96 410.698 101.333C412.24 101.689 413.571 102.21 414.692 102.896C415.813 103.583 416.689 104.426 417.318 105.427C417.947 106.411 418.276 107.499 418.304 108.692C418.336 110.028 417.983 111.32 417.246 112.567C416.509 113.814 415.484 114.917 414.17 115.874C412.856 116.832 411.297 117.609 409.493 118.204C407.689 118.799 405.736 119.121 403.634 119.171C400.838 119.237 398.266 119.004 395.919 118.471C393.589 117.956 391.576 117.201 389.877 116.208C388.196 115.214 386.875 114.015 385.915 112.612C384.973 111.191 384.481 109.625 384.441 107.915C384.401 106.223 384.594 104.561 385.018 102.929C385.461 101.279 386.128 99.7124 387.019 98.2299C387.928 96.7292 389.063 95.3301 390.422 94.0326C391.781 92.7172 393.375 91.53 395.204 90.471ZM412.956 109.754C412.942 109.149 412.733 108.601 412.329 108.112C411.943 107.622 411.399 107.207 410.695 106.867C410.01 106.527 409.175 106.27 408.191 106.097C407.225 105.924 406.154 105.851 404.978 105.879C402.751 105.932 400.577 106.295 398.454 106.969C396.348 107.625 394.374 108.554 392.531 109.756C392.093 110.051 391.878 110.404 391.888 110.813C391.895 111.098 392.062 111.389 392.39 111.684C392.717 111.961 393.16 112.227 393.719 112.481C394.277 112.735 394.933 112.978 395.687 113.21C396.441 113.442 397.239 113.637 398.08 113.795C398.922 113.953 399.789 114.075 400.682 114.161C401.575 114.247 402.449 114.28 403.304 114.26C404.676 114.227 405.947 114.09 407.118 113.849C408.306 113.589 409.332 113.262 410.196 112.867C411.077 112.454 411.761 111.984 412.247 111.455C412.734 110.927 412.97 110.36 412.956 109.754Z" fill="white"/>
<path d="M42.4758 178.755C41.2666 178.831 40.1622 179.194 39.1625 179.842C38.183 180.468 37.3367 181.312 36.6233 182.376C35.9303 183.417 35.4107 184.631 35.0647 186.019C34.7186 187.406 34.5946 188.878 34.6927 190.432C34.7935 192.03 35.2431 193.487 36.0414 194.802C36.86 196.095 37.9383 197.208 39.2763 198.142C40.6345 199.054 42.195 199.736 43.9578 200.188C45.7422 200.64 47.6601 200.8 49.7114 200.671C51.2013 200.577 52.5966 200.359 53.8974 200.017C55.2185 199.652 56.3613 199.211 57.326 198.695C58.2906 198.179 59.0454 197.6 59.5902 196.959C60.1337 196.296 60.3837 195.619 60.3401 194.928C60.3061 194.388 60.181 193.951 59.9649 193.618C59.7474 193.263 59.5002 192.954 59.2234 192.689C58.9668 192.402 58.7325 192.124 58.5205 191.856C58.3071 191.566 58.186 191.194 58.1574 190.741C58.1302 190.309 58.2123 189.892 58.4037 189.489C58.5951 189.087 58.8648 188.723 59.2128 188.398C59.5824 188.071 59.9993 187.806 60.4634 187.603C60.9492 187.399 61.4511 187.281 61.9694 187.248C62.5955 187.209 63.1888 187.334 63.749 187.624C64.3308 187.912 64.8345 188.336 65.2599 188.894C65.7056 189.43 66.0609 190.079 66.3259 190.843C66.6111 191.584 66.7809 192.386 66.8354 193.25C66.9457 194.999 66.5843 196.658 65.7512 198.228C64.9167 199.777 63.7129 201.143 62.14 202.326C60.5671 203.509 58.6775 204.484 56.4714 205.252C54.2639 205.999 51.843 206.455 49.2087 206.621C46.2937 206.805 43.5809 206.586 41.0704 205.964C38.5584 205.32 36.3621 204.353 34.4813 203.062C32.6222 201.771 31.1354 200.195 30.0209 198.336C28.9065 196.477 28.277 194.403 28.1326 192.114C27.9747 189.609 28.2574 187.218 28.9808 184.939C29.7258 182.659 30.8016 180.641 32.2082 178.883C33.6148 177.125 35.2915 175.696 37.2383 174.598C39.2067 173.498 41.3353 172.876 43.6242 172.732C44.639 172.668 45.575 172.728 46.4321 172.913C47.3094 173.074 48.0741 173.34 48.7262 173.711C49.3782 174.082 49.8947 174.537 50.2756 175.076C50.6767 175.593 50.8977 176.175 50.9386 176.823C50.9713 177.341 50.8838 177.845 50.6763 178.335C50.489 178.803 50.2233 179.231 49.8794 179.621C49.5341 179.99 49.12 180.298 48.637 180.545C48.1756 180.791 47.6749 180.931 47.1351 180.965C46.5737 181.001 46.1121 180.9 45.7503 180.662C45.4101 180.424 45.09 180.162 44.7903 179.877C44.4891 179.571 44.1685 179.299 43.8282 179.06C43.488 178.821 43.0372 178.72 42.4758 178.755ZM76.8764 180.292C76.4554 180.492 76.0398 180.605 75.6295 180.631C74.5931 180.696 73.8417 180.126 73.3754 178.92C73.247 178.603 73.1544 178.337 73.0976 178.124C73.0624 177.91 73.0393 177.716 73.0284 177.543C72.9644 176.528 73.489 175.737 74.602 175.168C76.8121 174.118 79.0762 173.238 81.3943 172.528C83.7125 171.818 86.07 171.388 88.4668 171.237C89.5896 171.166 90.6983 171.215 91.7929 171.384C92.9091 171.553 93.9175 171.901 94.8179 172.429C95.7184 172.958 96.4692 173.691 97.0703 174.629C97.6714 175.566 98.0183 176.769 98.1109 178.237C98.1763 179.274 98.023 180.281 97.6511 181.258C97.3008 182.234 96.8074 183.176 96.1709 184.083C95.5344 184.99 94.798 185.86 93.9618 186.694C93.1255 187.527 92.2636 188.297 91.3759 189.003C90.4883 189.709 89.6081 190.361 88.7352 190.958C87.861 191.533 87.0691 192.039 86.3595 192.474C85.7565 192.88 85.4672 193.278 85.4917 193.666C85.5203 194.12 85.8775 194.455 86.5632 194.672C88.9254 195.347 91.3381 195.964 93.8014 196.524C96.2647 197.084 98.7659 197.728 101.305 198.457C102.498 198.815 103.123 199.448 103.181 200.355C103.208 200.787 103.106 201.238 102.876 201.707C102.665 202.154 102.421 202.571 102.142 202.957C101.574 203.925 100.826 204.438 99.8974 204.497C99.5735 204.517 99.17 204.477 98.6867 204.378C97.2492 203.927 95.7023 203.461 94.0461 202.98C92.4114 202.497 90.7343 202.029 89.0147 201.574C87.3153 201.095 85.6395 200.648 83.9874 200.232C82.3339 199.795 80.8025 199.403 79.3934 199.059C78.8886 198.961 78.5498 198.917 78.3771 198.928C78.2043 198.939 78.0667 198.991 77.9642 199.084C77.8819 199.154 77.8482 199.308 77.8632 199.546C77.8673 199.61 77.8835 199.696 77.9119 199.803C77.939 199.888 77.9559 199.984 77.9627 200.092C78.0479 200.412 78.1507 200.839 78.2712 201.373C78.4118 201.885 78.543 202.418 78.6648 202.974C78.8082 203.529 78.9286 204.063 79.0261 204.577C79.1222 205.07 79.1805 205.478 79.2009 205.802C79.2772 207.011 78.6717 207.895 77.3845 208.453L75.9556 208.998C75.7438 209.077 75.5522 209.132 75.3808 209.165C75.2108 209.219 75.0286 209.252 74.8343 209.264C73.6467 209.339 72.9094 208.649 72.6225 207.193C71.8563 203.295 70.9425 199.462 69.8809 195.692C68.8409 191.92 67.6828 188.167 66.4066 184.432C66.3282 184.22 66.2735 184.039 66.2423 183.89C66.2314 183.717 66.2219 183.566 66.2137 183.436C66.1416 182.292 66.7079 181.476 67.9128 180.988C68.3567 180.808 68.7163 180.666 68.9916 180.562C69.2884 180.457 69.5218 180.377 69.6919 180.323C69.8821 180.246 70.0197 180.194 70.1047 180.167C70.2113 180.138 70.3078 180.121 70.3942 180.116C71.5602 180.042 72.3575 180.653 72.786 181.949C73.3457 183.604 73.8696 185.208 74.3577 186.76C74.8674 188.31 75.3325 189.841 75.7531 191.354C75.9735 192.099 76.3105 192.457 76.7639 192.428C76.8935 192.42 77.0433 192.389 77.2133 192.335C77.3819 192.259 77.5816 192.16 77.8123 192.037C78.4801 191.626 79.2828 191.121 80.2205 190.519C81.1797 189.917 82.1679 189.259 83.185 188.544C84.2224 187.807 85.2362 187.038 86.2263 186.239C87.2381 185.438 88.131 184.644 88.9052 183.858C89.701 183.071 90.3356 182.305 90.8089 181.56C91.2821 180.814 91.499 180.129 91.4595 179.502C91.435 179.114 91.3478 178.762 91.1978 178.446C91.0694 178.129 90.8357 177.862 90.4969 177.645C90.158 177.427 89.7038 177.272 89.1342 177.178C88.5862 177.082 87.8912 177.061 87.049 177.114C86.2285 177.166 85.3696 177.296 84.4722 177.504C83.5951 177.69 82.7214 177.929 81.8511 178.222C80.9808 178.516 80.1233 178.841 79.2787 179.198C78.434 179.554 77.6333 179.919 76.8764 180.292ZM108.657 194.937C108.592 194.941 108.485 194.958 108.335 194.989C108.207 195.019 108.057 195.05 107.886 195.083C107.736 195.114 107.586 195.145 107.436 195.176C107.287 195.207 107.168 195.226 107.082 195.231C106.477 195.269 105.933 195.054 105.448 194.586C104.962 194.097 104.692 193.431 104.639 192.589C104.604 192.027 104.753 191.476 105.088 190.934C105.422 190.393 105.967 189.925 106.722 189.531C106.953 189.408 107.129 189.277 107.251 189.14C107.392 188.979 107.455 188.769 107.439 188.51C107.395 187.819 107.327 187.086 107.235 186.312C107.163 185.514 107.061 184.588 106.93 183.534C106.894 183.32 106.806 183.119 106.664 182.933C106.544 182.746 106.401 182.538 106.234 182.31C106.089 182.059 105.952 181.786 105.825 181.49C105.698 181.195 105.62 180.82 105.592 180.367C105.566 179.957 105.59 179.489 105.666 178.964C105.761 178.416 105.978 177.904 106.317 177.427C106.675 176.928 107.18 176.506 107.83 176.161C108.501 175.794 109.387 175.575 110.488 175.506C110.941 175.477 111.322 175.496 111.63 175.564C111.937 175.631 112.203 175.723 112.427 175.838C112.672 175.931 112.883 176.016 113.061 176.091C113.261 176.165 113.458 176.196 113.652 176.184C113.998 176.162 114.685 176.054 115.713 175.859C116.741 175.664 117.971 175.402 119.403 175.073C120.856 174.743 122.448 174.372 124.178 173.959C125.929 173.545 127.701 173.108 129.493 172.648C131.284 172.167 133.031 171.688 134.735 171.212C136.44 170.736 137.983 170.281 139.364 169.847C139.789 169.712 140.164 169.634 140.488 169.614C140.941 169.585 141.304 169.67 141.577 169.87C141.87 170.047 142.091 170.282 142.239 170.576C142.388 170.87 142.485 171.211 142.531 171.598C142.598 171.963 142.641 172.307 142.662 172.631C142.697 173.192 142.536 173.733 142.179 174.254C141.842 174.753 141.25 175.169 140.404 175.505C138.306 176.266 136.181 176.952 134.031 177.565C131.9 178.155 129.746 178.713 127.568 179.241C125.388 179.747 123.196 180.221 120.991 180.664C118.786 181.106 116.592 181.548 114.409 181.989C114.109 182.052 113.89 182.185 113.751 182.389C113.611 182.571 113.55 182.813 113.569 183.115L113.653 184.443C113.676 184.81 113.711 185.188 113.757 185.575C113.803 185.962 113.869 186.316 113.954 186.636C114.061 186.954 114.186 187.217 114.329 187.425C114.471 187.611 114.65 187.697 114.865 187.684C115.384 187.651 116.176 187.493 117.242 187.209C118.329 186.923 119.544 186.587 120.885 186.198C122.247 185.787 123.661 185.351 125.127 184.89C126.614 184.406 128.018 183.971 129.337 183.584C130.656 183.176 131.816 182.832 132.817 182.552C133.818 182.272 134.524 182.119 134.934 182.093C135.539 182.055 136.006 182.253 136.337 182.687C136.688 183.099 136.939 183.636 137.089 184.298C137.096 184.406 137.113 184.503 137.14 184.588C137.167 184.673 137.184 184.769 137.191 184.877C137.23 185.503 137.073 186.099 136.718 186.663C136.384 187.204 135.739 187.635 134.784 187.956C134.53 188.058 134.02 188.231 133.255 188.475C132.489 188.697 131.585 188.97 130.543 189.296C129.5 189.6 128.372 189.932 127.159 190.29C125.946 190.648 124.754 191.005 123.585 191.361C122.413 191.695 121.318 192.024 120.298 192.349C119.298 192.65 118.479 192.897 117.84 193.089C117.267 193.277 116.918 193.418 116.794 193.513C116.692 193.606 116.644 193.717 116.653 193.847C116.726 194.319 116.991 194.747 117.449 195.13C117.928 195.512 118.513 195.854 119.205 196.157C119.917 196.459 120.704 196.724 121.563 196.952C122.445 197.178 123.345 197.359 124.264 197.497C125.204 197.611 126.119 197.694 127.012 197.746C127.904 197.798 128.728 197.8 129.483 197.753C129.807 197.732 130.271 197.703 130.876 197.665C131.481 197.627 132.138 197.574 132.85 197.508C133.581 197.418 134.323 197.317 135.074 197.205C135.848 197.091 136.533 196.961 137.131 196.815C137.749 196.646 138.247 196.463 138.625 196.266C139.023 196.045 139.213 195.806 139.197 195.547C139.182 195.309 139.08 195.066 138.891 194.818C138.723 194.568 138.63 194.292 138.611 193.99C138.584 193.558 138.676 193.13 138.888 192.705C139.098 192.258 139.376 191.861 139.723 191.514C140.09 191.144 140.505 190.847 140.968 190.622C141.451 190.375 141.94 190.236 142.437 190.204C143.063 190.165 143.644 190.258 144.178 190.485C144.711 190.69 145.174 190.986 145.567 191.373C145.981 191.737 146.301 192.172 146.528 192.678C146.776 193.182 146.918 193.705 146.952 194.244C147.042 195.67 146.59 196.934 145.597 198.037C144.626 199.139 143.32 200.077 141.678 200.853C140.037 201.65 138.169 202.278 136.073 202.735C133.979 203.214 131.863 203.521 129.726 203.656C127.221 203.814 124.921 203.785 122.826 203.571C120.733 203.377 118.843 202.966 117.155 202.335C115.468 201.704 113.994 200.843 112.733 199.752C111.47 198.64 110.408 197.265 109.546 195.628C109.256 195.148 108.959 194.918 108.657 194.937ZM149.593 193.883C149.226 193.906 148.933 193.74 148.716 193.385C148.52 193.029 148.401 192.516 148.359 191.847C148.352 191.739 148.344 191.62 148.336 191.491C148.327 191.34 148.331 191.057 148.348 190.644C148.315 189.086 149.024 188.13 150.476 187.779L151.217 187.667C151.709 187.571 152.088 187.395 152.354 187.14C152.618 186.863 152.801 186.494 152.902 186.032C153.191 184.778 153.48 183.514 153.768 182.238C154.056 180.963 154.367 179.697 154.699 178.44C154.872 177.735 155.041 176.988 155.208 176.197C155.395 175.383 155.594 174.579 155.804 173.785C156.036 172.99 156.3 172.204 156.598 171.426C156.918 170.647 157.284 169.931 157.698 169.276C157.876 169.004 158.129 168.718 158.457 168.415C158.785 168.113 159.158 167.84 159.576 167.597C160.014 167.33 160.478 167.117 160.966 166.956C161.475 166.772 161.978 166.665 162.474 166.633C163.122 166.592 163.772 166.757 164.424 167.128C165.303 167.658 166.179 168.307 167.051 169.076C167.923 169.845 168.907 170.834 170.002 172.044C171.097 173.254 172.371 174.724 173.825 176.453C175.276 178.161 177.022 180.229 179.061 182.659C179.362 182.965 179.669 183.195 179.983 183.349C180.316 183.479 180.699 183.531 181.131 183.504L182.977 183.387C183.732 183.34 184.327 183.486 184.76 183.828C185.214 184.146 185.461 184.618 185.5 185.244C185.508 185.374 185.507 185.526 185.496 185.7C185.507 185.872 185.486 186.047 185.432 186.224L184.931 188.077C184.899 188.252 184.876 188.405 184.862 188.536C184.849 188.667 184.846 188.797 184.855 188.927C184.883 189.38 185.064 189.835 185.396 190.291L189.16 194.801C189.585 195.36 189.814 195.898 189.847 196.416C189.896 197.194 189.496 197.902 188.648 198.541L187.472 199.493C187.182 199.706 186.9 199.876 186.626 200.001C186.374 200.126 186.107 200.197 185.827 200.214C185.438 200.239 185.063 200.143 184.703 199.928C184.365 199.732 184.033 199.449 183.706 199.08C182.577 197.677 181.439 196.296 180.291 194.938C179.165 193.578 178.017 192.231 176.849 190.895C176.309 190.236 175.629 189.932 174.808 189.983C172.181 190.258 169.577 190.574 166.999 190.931C164.44 191.266 161.873 191.645 159.299 192.067C158.375 192.212 157.824 192.746 157.644 193.668L156.523 199.104C156.224 200.553 155.406 201.32 154.067 201.405L153.549 201.437L152.536 201.371C151.798 201.353 151.222 201.161 150.809 200.797C150.418 200.432 150.202 199.936 150.163 199.31C150.154 199.18 150.156 199.039 150.168 198.887C150.181 198.734 150.203 198.57 150.235 198.395C150.316 197.956 150.396 197.507 150.475 197.046C150.576 196.585 150.678 196.134 150.78 195.694C150.812 195.518 150.835 195.365 150.849 195.234C150.861 195.082 150.863 194.941 150.854 194.811C150.812 194.142 150.532 193.824 150.014 193.856L149.593 193.883ZM163.931 175.809C163.703 175.628 163.498 175.479 163.317 175.36C163.136 175.241 162.949 175.188 162.755 175.2C162.215 175.234 161.861 175.636 161.692 176.405C161.341 177.707 161 178.996 160.668 180.275C160.357 181.53 160.037 182.818 159.709 184.14C159.673 184.25 159.657 184.349 159.663 184.435C159.668 184.522 159.674 184.619 159.681 184.727C159.731 185.526 160.178 185.899 161.02 185.845L161.344 185.825C162.628 185.571 163.916 185.359 165.206 185.191C166.494 185.002 167.785 184.833 169.076 184.687C169.505 184.616 169.833 184.487 170.06 184.3C170.307 184.089 170.42 183.833 170.401 183.53C170.384 183.25 170.233 182.923 169.949 182.551C168.966 181.399 167.974 180.269 166.972 179.162C165.99 178.031 164.976 176.914 163.931 175.809ZM196.396 170.379C196.224 170.39 195.892 170.454 195.4 170.572C194.93 170.667 194.374 170.789 193.733 170.937C193.092 171.086 192.42 171.259 191.717 171.455C191.012 171.629 190.35 171.79 189.731 171.938C189.112 172.085 188.578 172.216 188.13 172.331C187.659 172.426 187.348 172.478 187.197 172.488C185.75 172.579 184.979 171.869 184.884 170.357C184.858 169.947 184.876 169.545 184.938 169.151C184.977 168.737 185.083 168.361 185.257 168.025C185.429 167.667 185.67 167.36 185.979 167.102C186.288 166.844 186.688 166.656 187.179 166.538C189.681 165.99 192.171 165.421 194.648 164.831C197.126 164.242 199.623 163.629 202.141 162.993C202.696 162.85 203.197 162.72 203.645 162.605C204.092 162.469 204.59 162.297 205.141 162.088C205.735 161.877 206.383 161.674 207.086 161.478C207.788 161.26 208.491 161.064 209.195 160.89C209.921 160.714 210.616 160.562 211.28 160.433C211.965 160.303 212.589 160.22 213.15 160.185C213.841 160.141 214.374 160.335 214.748 160.767C215.142 161.176 215.365 161.779 215.415 162.578C215.441 162.989 215.434 163.39 215.393 163.783C215.352 164.154 215.254 164.496 215.1 164.809C214.947 165.123 214.725 165.386 214.435 165.599C214.145 165.813 213.764 165.956 213.291 166.029C212.071 166.28 210.768 166.579 209.381 166.926C207.992 167.252 206.789 167.599 205.772 167.967C205.348 168.124 205.038 168.36 204.841 168.676C204.643 168.97 204.525 169.335 204.487 169.771C204.449 170.186 204.432 170.609 204.438 171.043C204.463 171.453 204.489 171.852 204.513 172.241C204.57 173.148 204.66 174.053 204.782 174.956C204.926 175.857 205.058 176.759 205.18 177.662C205.571 180.759 206.056 183.818 206.637 186.838C207.239 189.856 207.876 192.905 208.547 195.985C208.597 196.09 208.626 196.196 208.633 196.304C208.639 196.412 208.646 196.52 208.653 196.628C208.728 197.816 208.112 198.7 206.804 199.281L205.375 199.827C204.995 199.981 204.621 200.069 204.254 200.093C203.693 200.128 203.228 199.973 202.859 199.628C202.492 199.304 202.232 198.8 202.081 198.116C201.242 194.44 200.48 190.781 199.795 187.139C199.108 183.475 198.583 179.78 198.218 176.052C198.136 175.451 198.062 174.794 197.996 174.083C197.929 173.372 197.872 172.638 197.824 171.882C197.758 170.824 197.282 170.323 196.396 170.379ZM222.593 187.75C222.528 187.754 222.421 187.771 222.271 187.802C222.143 187.832 221.993 187.863 221.822 187.896C221.672 187.927 221.522 187.958 221.373 187.989C221.223 188.02 221.105 188.039 221.018 188.044C220.414 188.082 219.869 187.867 219.384 187.399C218.898 186.91 218.629 186.244 218.575 185.402C218.54 184.84 218.69 184.289 219.024 183.747C219.358 183.206 219.903 182.738 220.659 182.344C220.89 182.221 221.066 182.09 221.187 181.953C221.329 181.792 221.391 181.582 221.375 181.323C221.331 180.632 221.263 179.899 221.171 179.125C221.099 178.327 220.997 177.401 220.866 176.347C220.831 176.133 220.742 175.932 220.6 175.746C220.48 175.559 220.337 175.351 220.171 175.123C220.025 174.872 219.888 174.599 219.761 174.303C219.634 174.008 219.557 173.633 219.528 173.18C219.502 172.77 219.527 172.302 219.602 171.777C219.698 171.229 219.915 170.717 220.253 170.24C220.612 169.741 221.116 169.318 221.767 168.974C222.437 168.606 223.323 168.388 224.424 168.319C224.878 168.29 225.258 168.309 225.566 168.377C225.874 168.444 226.14 168.536 226.364 168.651C226.608 168.744 226.819 168.829 226.997 168.904C227.197 168.978 227.394 169.009 227.589 168.997C227.934 168.975 228.621 168.867 229.649 168.672C230.678 168.477 231.908 168.215 233.339 167.886C234.793 167.556 236.384 167.185 238.114 166.772C239.866 166.358 241.637 165.921 243.429 165.461C245.22 164.98 246.967 164.501 248.672 164.025C250.376 163.549 251.919 163.094 253.301 162.66C253.726 162.525 254.1 162.447 254.424 162.426C254.878 162.398 255.241 162.483 255.513 162.683C255.806 162.86 256.027 163.095 256.176 163.389C256.324 163.683 256.422 164.024 256.468 164.411C256.534 164.776 256.578 165.12 256.598 165.444C256.633 166.005 256.472 166.546 256.115 167.067C255.778 167.566 255.186 167.982 254.34 168.317C252.242 169.079 250.118 169.765 247.967 170.378C245.836 170.968 243.682 171.526 241.504 172.054C239.325 172.56 237.133 173.034 234.928 173.477C232.723 173.919 230.528 174.361 228.345 174.802C228.046 174.865 227.826 174.998 227.687 175.202C227.547 175.384 227.487 175.626 227.506 175.928L227.589 177.256C227.613 177.623 227.647 178.001 227.693 178.388C227.739 178.775 227.805 179.129 227.89 179.449C227.997 179.767 228.122 180.03 228.265 180.238C228.407 180.424 228.586 180.51 228.802 180.497C229.32 180.464 230.112 180.306 231.178 180.022C232.266 179.736 233.48 179.4 234.821 179.011C236.183 178.6 237.597 178.164 239.064 177.703C240.551 177.219 241.954 176.784 243.274 176.397C244.592 175.989 245.752 175.645 246.753 175.365C247.754 175.085 248.46 174.932 248.87 174.906C249.475 174.868 249.943 175.066 250.274 175.5C250.625 175.912 250.875 176.449 251.026 177.111C251.032 177.219 251.049 177.316 251.076 177.401C251.103 177.486 251.12 177.582 251.127 177.69C251.167 178.316 251.009 178.912 250.654 179.476C250.32 180.017 249.675 180.448 248.72 180.769C248.466 180.871 247.957 181.044 247.192 181.288C246.425 181.51 245.521 181.783 244.48 182.109C243.436 182.413 242.308 182.745 241.095 183.103C239.882 183.461 238.691 183.818 237.521 184.174C236.35 184.508 235.254 184.837 234.234 185.162C233.234 185.463 232.415 185.71 231.777 185.902C231.203 186.09 230.854 186.231 230.73 186.326C230.628 186.419 230.581 186.53 230.589 186.66C230.662 187.132 230.927 187.56 231.385 187.943C231.865 188.325 232.45 188.667 233.141 188.97C233.854 189.272 234.64 189.537 235.5 189.765C236.381 189.991 237.281 190.172 238.201 190.31C239.14 190.424 240.056 190.507 240.948 190.559C241.84 190.611 242.664 190.613 243.42 190.566C243.743 190.545 244.208 190.516 244.812 190.478C245.417 190.44 246.075 190.387 246.786 190.321C247.517 190.231 248.259 190.13 249.011 190.018C249.784 189.904 250.469 189.774 251.067 189.628C251.685 189.459 252.183 189.276 252.561 189.079C252.959 188.858 253.15 188.619 253.133 188.36C253.118 188.122 253.016 187.879 252.827 187.631C252.66 187.381 252.566 187.105 252.547 186.803C252.52 186.371 252.612 185.943 252.824 185.517C253.034 185.071 253.313 184.674 253.659 184.327C254.026 183.957 254.441 183.66 254.904 183.435C255.387 183.188 255.877 183.049 256.373 183.017C256.999 182.978 257.58 183.071 258.114 183.298C258.648 183.503 259.111 183.799 259.504 184.186C259.917 184.55 260.237 184.985 260.464 185.491C260.713 185.995 260.854 186.518 260.888 187.057C260.978 188.483 260.526 189.747 259.534 190.85C258.563 191.952 257.256 192.89 255.614 193.666C253.974 194.463 252.105 195.091 250.01 195.548C247.916 196.027 245.8 196.334 243.662 196.469C241.157 196.627 238.857 196.598 236.763 196.383C234.669 196.19 232.779 195.778 231.092 195.148C229.404 194.517 227.93 193.656 226.669 192.565C225.407 191.453 224.344 190.078 223.482 188.441C223.192 187.961 222.895 187.731 222.593 187.75ZM259.881 168.553C259.603 168.614 259.367 168.662 259.174 168.695C258.981 168.729 258.82 168.75 258.691 168.758C257.954 168.762 257.422 168.589 257.097 168.241C256.77 167.872 256.579 167.244 256.523 166.359C256.413 164.61 257.185 163.455 258.841 162.896C260.309 162.456 261.891 162.107 263.588 161.848C265.282 161.568 267.177 161.362 269.272 161.23C272.079 161.053 274.881 161.147 277.679 161.512C280.499 161.876 283.191 162.455 285.755 163.247C288.34 164.016 290.753 164.98 292.994 166.139C295.234 167.277 297.189 168.552 298.861 169.964C300.553 171.353 301.894 172.851 302.884 174.458C303.894 176.042 304.452 177.665 304.557 179.328C304.663 181.012 304.192 182.657 303.145 184.262C302.117 185.844 300.679 187.279 298.831 188.566C296.983 189.853 294.818 190.922 292.335 191.772C289.852 192.623 287.229 193.135 284.465 193.309C282.262 193.448 279.95 193.388 277.527 193.129C275.105 192.87 272.418 192.378 269.467 191.654C268.105 191.371 267.384 190.593 267.304 189.319C267.286 189.038 267.335 188.775 267.449 188.53C267.564 188.284 267.679 188.049 267.795 187.825C267.933 187.599 268.06 187.385 268.177 187.183C268.293 186.959 268.344 186.739 268.331 186.523C268.253 185.292 268.105 183.979 267.887 182.584C267.691 181.187 267.44 179.794 267.136 178.404C266.853 177.013 266.531 175.689 266.17 174.433C265.829 173.153 265.487 172.026 265.144 171.05C264.8 170.075 264.459 169.305 264.12 168.741C263.801 168.154 263.523 167.868 263.285 167.883C262.918 167.906 262.468 167.978 261.933 168.099C261.42 168.218 260.736 168.369 259.881 168.553ZM272.318 167.249C271.692 167.288 271.392 167.524 271.419 167.956C271.426 168.064 271.47 168.245 271.551 168.5C271.632 168.755 271.755 169.159 271.92 169.712C272.172 170.607 272.417 171.567 272.655 172.593C272.893 173.618 273.139 174.773 273.394 176.058C273.647 177.321 273.899 178.747 274.151 180.335C274.423 181.9 274.709 183.671 275.007 185.647C275.049 185.969 275.36 186.264 275.94 186.531C276.519 186.776 277.281 186.988 278.224 187.167C279.166 187.324 280.236 187.441 281.433 187.517C282.65 187.571 283.896 187.557 285.17 187.477C286.854 187.371 288.451 187.075 289.959 186.589C291.488 186.081 292.814 185.455 293.938 184.713C295.083 183.968 295.974 183.132 296.609 182.203C297.266 181.273 297.564 180.332 297.504 179.382C297.405 177.806 296.682 176.312 295.335 174.902C294.011 173.489 292.22 172.247 289.962 171.176C287.704 170.083 285.068 169.197 282.056 168.52C279.042 167.822 275.796 167.398 272.318 167.249ZM333.163 191.636C332.567 187.685 331.866 183.783 331.059 179.932C330.274 176.079 329.369 172.202 328.342 168.3C328.261 168.045 328.161 167.845 328.044 167.701C327.947 167.533 327.812 167.455 327.639 167.466C327.509 167.474 327.359 167.494 327.188 167.527C327.038 167.558 326.877 167.579 326.704 167.59C325.883 167.642 325.233 167.477 324.754 167.095C324.275 166.713 324.015 166.21 323.976 165.583C323.931 164.871 324.179 164.161 324.72 163.455C325.282 162.748 326.031 162.072 326.965 161.428C327.899 160.762 328.976 160.141 330.197 159.565C331.418 158.99 332.677 158.488 333.972 158.059C335.287 157.608 336.587 157.244 337.87 156.968C339.152 156.67 340.322 156.488 341.38 156.421C343.302 156.3 344.969 156.433 346.381 156.821C347.814 157.208 348.998 157.762 349.932 158.483C350.888 159.203 351.603 160.058 352.078 161.047C352.574 162.034 352.855 163.068 352.924 164.148C352.992 165.227 352.829 166.43 352.436 167.755C352.063 169.058 351.362 170.327 350.335 171.562C350.215 171.722 350.136 171.857 350.1 171.967C350.062 172.056 350.047 172.155 350.054 172.263C350.066 172.457 350.29 172.573 350.726 172.611C351.985 172.64 353.213 172.866 354.411 173.289C355.63 173.71 356.707 174.293 357.643 175.036C358.577 175.757 359.347 176.63 359.954 177.654C360.561 178.678 360.901 179.784 360.976 180.972C361.081 182.634 360.849 184.112 360.28 185.405C359.732 186.676 358.922 187.756 357.851 188.648C356.78 189.539 355.479 190.228 353.949 190.715C352.442 191.222 350.792 191.532 349 191.645C347.597 191.733 346.174 191.693 344.733 191.524C343.314 191.375 341.923 191.148 340.56 190.844C340.471 190.806 340.34 190.793 340.167 190.804C339.8 190.827 339.522 191.061 339.334 191.507C339.013 192.264 338.52 192.87 337.855 193.323C337.211 193.776 336.544 194.024 335.853 194.068C335.227 194.107 334.663 193.937 334.162 193.556C333.663 193.198 333.33 192.558 333.163 191.636ZM338.668 178.899C338.204 179.102 337.988 179.452 338.019 179.948C338.023 180.013 338.06 180.249 338.129 180.657C338.219 181.063 338.323 181.501 338.439 181.97C338.561 182.526 338.696 183.125 338.845 183.766C338.945 184.323 339.259 184.65 339.785 184.747C340.467 184.899 341.214 185.058 342.026 185.224C342.838 185.368 343.68 185.499 344.555 185.617C345.43 185.735 346.313 185.82 347.205 185.872C348.097 185.925 348.954 185.925 349.774 185.873C350.4 185.833 351.001 185.731 351.576 185.564C352.149 185.376 352.653 185.117 353.087 184.786C353.522 184.455 353.854 184.055 354.085 183.585C354.335 183.092 354.44 182.511 354.397 181.842C354.336 180.87 354.014 180.067 353.432 179.431C352.85 178.796 352.136 178.299 351.29 177.941C350.443 177.582 349.529 177.347 348.546 177.236C347.562 177.103 346.639 177.063 345.775 177.118C344.609 177.191 343.429 177.396 342.237 177.731C341.065 178.065 339.876 178.455 338.668 178.899ZM335.2 163.607C334.966 163.687 334.788 163.774 334.664 163.869C334.539 163.963 334.485 164.129 334.5 164.367C334.515 164.604 334.585 165.033 334.711 165.654C334.857 166.252 335.02 166.935 335.198 167.704C335.398 168.472 335.601 169.272 335.805 170.105C336.029 170.915 336.227 171.65 336.399 172.311C336.468 172.719 336.572 172.994 336.711 173.137C336.872 173.279 337.06 173.343 337.276 173.329C337.406 173.321 337.567 173.289 337.758 173.234C337.97 173.155 338.245 173.051 338.584 172.921C339.451 172.585 340.36 172.213 341.31 171.806C342.28 171.377 343.149 170.888 343.917 170.341C344.706 169.793 345.338 169.168 345.814 168.466C346.311 167.741 346.53 166.925 346.473 166.018C346.428 165.305 346.239 164.721 345.907 164.265C345.574 163.787 345.127 163.414 344.568 163.146C344.008 162.856 343.368 162.669 342.647 162.585C341.926 162.5 341.145 162.484 340.303 162.537C339.439 162.592 338.569 162.712 337.691 162.897C336.836 163.081 336.005 163.318 335.2 163.607ZM357.078 159.431C356.287 158.917 355.867 158.271 355.818 157.494C355.799 157.192 355.835 156.897 355.925 156.609C356.014 156.3 356.189 155.986 356.451 155.666L357.323 154.537C357.84 153.811 358.477 153.424 359.233 153.376C359.492 153.36 359.776 153.396 360.085 153.485C360.371 153.554 360.673 153.697 360.99 153.916C364.156 155.992 367.209 158.163 370.148 160.427C373.108 162.668 375.985 165.143 378.779 167.85C379.213 168.212 379.582 168.384 379.884 168.365C380.467 168.328 380.799 167.917 380.879 167.132L383.013 155.583C383.256 154.289 383.874 153.61 384.868 153.548C385.084 153.534 385.312 153.552 385.554 153.602C385.817 153.651 386.084 153.753 386.354 153.909L387.526 154.453C388.621 154.969 389.2 155.724 389.262 156.718C389.283 157.041 389.241 157.402 389.136 157.799C388.572 160.544 388.006 163.441 387.44 166.49C386.894 169.516 386.332 172.63 385.753 175.832C385.173 179.012 384.575 182.236 383.957 185.505C383.339 188.774 382.698 192.012 382.033 195.219C381.771 196.558 381.068 197.264 379.923 197.336C379.599 197.356 379.239 197.314 378.842 197.209L377.753 196.953C377.072 196.822 376.569 196.572 376.242 196.202C375.915 195.833 375.734 195.367 375.699 194.806C375.691 194.676 375.681 194.525 375.67 194.352C375.681 194.178 375.713 194.003 375.767 193.826C376.296 191.213 376.815 188.622 377.325 186.054C377.835 183.485 378.323 180.907 378.789 178.32C378.822 178.166 378.846 178.034 378.861 177.925C378.876 177.816 378.879 177.696 378.871 177.567C378.855 177.307 378.774 177.063 378.63 176.834C378.507 176.603 378.341 176.375 378.131 176.15C374.874 172.973 371.49 170.011 367.978 167.263C364.488 164.513 360.855 161.902 357.078 159.431ZM416.262 177.061C415.895 177.085 415.603 176.919 415.385 176.564C415.189 176.208 415.07 175.695 415.028 175.026C415.021 174.918 415.014 174.799 415.006 174.669C414.996 174.518 415 174.236 415.017 173.823C414.984 172.264 415.693 171.309 417.145 170.957L417.886 170.846C418.379 170.75 418.758 170.574 419.023 170.319C419.288 170.042 419.47 169.673 419.571 169.211C419.861 167.957 420.15 166.692 420.438 165.417C420.726 164.141 421.036 162.875 421.369 161.619C421.541 160.914 421.711 160.166 421.878 159.375C422.065 158.561 422.263 157.758 422.473 156.964C422.705 156.169 422.97 155.383 423.268 154.605C423.587 153.826 423.954 153.109 424.368 152.454C424.546 152.183 424.798 151.896 425.126 151.594C425.454 151.291 425.827 151.018 426.245 150.775C426.684 150.509 427.147 150.296 427.636 150.135C428.144 149.951 428.647 149.843 429.144 149.812C429.791 149.771 430.441 149.936 431.093 150.307C431.972 150.837 432.848 151.486 433.72 152.255C434.592 153.023 435.576 154.013 436.671 155.223C437.767 156.433 439.041 157.902 440.494 159.632C441.946 161.339 443.691 163.408 445.731 165.837C446.032 166.144 446.339 166.374 446.652 166.527C446.985 166.658 447.368 166.71 447.8 166.682L449.646 166.566C450.402 166.518 450.996 166.665 451.43 167.006C451.883 167.325 452.13 167.797 452.17 168.423C452.178 168.552 452.176 168.704 452.166 168.878C452.177 169.051 452.155 169.226 452.101 169.403L451.6 171.255C451.568 171.431 451.545 171.584 451.532 171.715C451.518 171.846 451.516 171.976 451.524 172.106C451.552 172.559 451.733 173.014 452.065 173.47L455.829 177.98C456.254 178.538 456.484 179.077 456.516 179.595C456.565 180.372 456.166 181.08 455.317 181.719L454.141 182.671C453.851 182.885 453.569 183.054 453.296 183.18C453.043 183.304 452.777 183.375 452.496 183.393C452.107 183.418 451.733 183.322 451.372 183.106C451.035 182.911 450.703 182.628 450.376 182.259C449.247 180.856 448.108 179.475 446.96 178.117C445.834 176.757 444.687 175.409 443.519 174.074C442.978 173.414 442.298 173.11 441.477 173.162C438.85 173.436 436.247 173.752 433.668 174.11C431.109 174.445 428.543 174.823 425.968 175.246C425.045 175.391 424.493 175.924 424.313 176.846L423.192 182.282C422.894 183.732 422.075 184.499 420.736 184.583L420.218 184.616L419.206 184.55C418.468 184.531 417.892 184.34 417.479 183.976C417.087 183.61 416.871 183.115 416.832 182.488C416.824 182.359 416.826 182.218 416.838 182.065C416.85 181.913 416.872 181.749 416.904 181.573C416.985 181.135 417.065 180.685 417.144 180.225C417.245 179.763 417.347 179.313 417.449 178.873C417.482 178.697 417.505 178.544 417.518 178.413C417.53 178.26 417.532 178.119 417.524 177.99C417.482 177.321 417.201 177.002 416.683 177.035L416.262 177.061ZM430.6 158.988C430.372 158.807 430.168 158.657 429.987 158.539C429.806 158.42 429.618 158.367 429.424 158.379C428.884 158.413 428.53 158.815 428.362 159.584C428.01 160.885 427.669 162.175 427.338 163.453C427.027 164.709 426.707 165.997 426.378 167.318C426.342 167.429 426.326 167.528 426.332 167.614C426.337 167.7 426.343 167.797 426.35 167.905C426.401 168.704 426.847 169.077 427.689 169.024L428.013 169.004C429.298 168.749 430.585 168.538 431.875 168.37C433.164 168.18 434.454 168.012 435.745 167.866C436.175 167.795 436.502 167.666 436.729 167.478C436.976 167.268 437.09 167.011 437.071 166.709C437.053 166.428 436.902 166.102 436.619 165.729C435.636 164.577 434.643 163.448 433.641 162.34C432.659 161.21 431.646 160.092 430.6 158.988ZM457.803 150.541C457.778 150.152 457.853 149.789 458.027 149.453C458.199 149.096 458.451 148.787 458.781 148.528C459.11 148.247 459.497 148.016 459.941 147.837C460.406 147.656 460.898 147.549 461.416 147.516C462.431 147.452 463.186 147.567 463.682 147.861C464.177 148.155 464.501 148.644 464.652 149.328C465.201 152.177 465.675 154.878 466.074 157.433C466.494 159.964 466.853 162.391 467.151 164.714C467.448 167.015 467.696 169.232 467.896 171.366C468.094 173.478 468.256 175.527 468.381 177.513C468.449 178.593 468.112 179.427 467.369 180.016C466.647 180.604 465.552 180.944 464.084 181.036C463.414 181.078 462.875 180.95 462.466 180.65C462.08 180.371 461.868 179.929 461.83 179.325C461.595 175.611 461.257 172.142 460.815 168.918C460.394 165.671 459.963 162.794 459.523 160.285C459.083 157.776 458.691 155.687 458.347 154.018C458.024 152.326 457.842 151.167 457.803 150.541Z" fill="white"/>
<defs>
<filter id="filter0_f_443_40" x="0.906891" y="0.19339" width="271.359" height="171.869" filterUnits="userSpaceOnUse" color-interpolation-filters="sRGB">
<feFlood flood-opacity="0" result="BackgroundImageFix"/>
<feBlend mode="normal" in="SourceGraphic" in2="BackgroundImageFix" result="shape"/>
<feGaussianBlur stdDeviation="21.2038" result="effect1_foregroundBlur_443_40"/>
</filter>
<filter id="filter1_f_443_40" x="96.1822" y="103.15" width="248.372" height="147.64" filterUnits="userSpaceOnUse" color-interpolation-filters="sRGB">
<feFlood flood-opacity="0" result="BackgroundImageFix"/>
<feBlend mode="normal" in="SourceGraphic" in2="BackgroundImageFix" result="shape"/>
<feGaussianBlur stdDeviation="13.8664" result="effect1_foregroundBlur_443_40"/>
</filter>
<filter id="filter2_f_443_40" x="240.495" y="128.932" width="248.372" height="147.64" filterUnits="userSpaceOnUse" color-interpolation-filters="sRGB">
<feFlood flood-opacity="0" result="BackgroundImageFix"/>
<feBlend mode="normal" in="SourceGraphic" in2="BackgroundImageFix" result="shape"/>
<feGaussianBlur stdDeviation="13.8664" result="effect1_foregroundBlur_443_40"/>
</filter>
<filter id="filter3_f_443_40" x="311.205" y="25.9172" width="186.441" height="118.048" filterUnits="userSpaceOnUse" color-interpolation-filters="sRGB">
<feFlood flood-opacity="0" result="BackgroundImageFix"/>
<feBlend mode="normal" in="SourceGraphic" in2="BackgroundImageFix" result="shape"/>
<feGaussianBlur stdDeviation="13.8664" result="effect1_foregroundBlur_443_40"/>
</filter>
</defs>
</svg>
